<?xml version="1.0" encoding="utf-8"?><svg xmlns="http://www.w3.org/2000/svg" xmlns:xlink="http://www.w3.org/1999/xlink"><symbol viewBox="0 0 32 32" id="add-photo"><title>add-photo</title><g transform="translate(1 1)" fill-rule="evenodd"><path d="M5.71 23.53a1.998 1.998 0 0 1-2.105-1.64L.824 6.117A1.994 1.994 0 0 1 2.442 3.81L18.43.989a1.997 1.997 0 0 1 2.31 1.615L21.16 5l-.985.174-.422-2.396a.997.997 0 0 0-1.151-.803L2.616 4.794a.994.994 0 0 0-.807 1.148L4.59 21.717a.998.998 0 0 0 1.048.816l.071.997z"/><path d="M23 6.997A.995.995 0 0 0 22.003 6H6.997A.995.995 0 0 0 6 6.997v15.006c0 .552.445.997.997.997h13.025v1H6.997A1.995 1.995 0 0 1 5 22.003V6.997C5 5.894 5.89 5 6.997 5h15.006C23.106 5 24 5.89 24 6.997V20h-1V6.997z"/><path d="M25.5 29a4.5 4.5 0 1 0 0-9 4.5 4.5 0 0 0 0 9zm0 1a5.5 5.5 0 1 1 0-11 5.5 5.5 0 0 1 0 11z"/><path d="M9.001 24h-.046l-.874-.915.012-.085h12.814l.012.085-.874.915h-.046c-.1-1.972-.78-3.895-2.179-6.437-.152-.284-.33-.444-.564-.525a.667.667 0 0 0-.587.071c-.653.407-1.425.651-2.046.651a4.3 4.3 0 0 1-2.308-.661.656.656 0 0 0-.568-.062c-.236.082-.415.242-.573.538C9.78 20.105 9.1 22.028 9 24zm1.297-6.907c.267-.5.64-.833 1.12-1a1.657 1.657 0 0 1 1.44.167 3.28 3.28 0 0 0 1.765.5c.394 0 .984-.168 1.518-.5a1.657 1.657 0 0 1 1.44-.167c.482.167.854.5 1.121 1 1.283 2.33 2.19 4.519 2.298 6.907H8c.109-2.388 1.015-4.577 2.298-6.907z"/><g transform="translate(11 9)"><path d="M1 3.5C1 4.874 2.126 6 3.5 6A2.51 2.51 0 0 0 6 3.5 2.51 2.51 0 0 0 3.5 1 2.508 2.508 0 0 0 1 3.5zm-1 0C0 1.573 1.573 0 3.5 0A3.51 3.51 0 0 1 7 3.5 3.51 3.51 0 0 1 3.5 7 3.509 3.509 0 0 1 0 3.5z"/></g><g transform="translate(23 22)"><rect x="2" width="1" height="5" rx=".5"/><rect y="2" width="5" height="1" rx=".5"/></g></g></symbol><symbol viewBox="0 0 32 32" id="app-menu"><title>app-menu</title><g fill-rule="evenodd"><rect x="8" y="10" width="14" height="1.5" rx=".75"/><rect x="8" y="15" width="17" height="1.5" rx=".75"/><rect x="8" y="20" width="8" height="1.5" rx=".75"/><path d="M18.47 20.53l3.02 3.02a.75.75 0 0 0 1.062-.002l2.996-3.02a.75.75 0 0 0-1.065-1.056l-2.996 3.02 1.063-.003-3.02-3.02a.75.75 0 0 0-1.06 1.061z" fill="#A7ACB3"/></g></symbol><symbol viewBox="0 0 32 32" id="audio-play"><title>audio-play</title><path d="M11 8.648v14.7a.81.81 0 0 0 .043.311.33.33 0 0 0-.138-.12.321.321 0 0 0-.117-.04c.079-.011.206-.06.368-.16l11.55-7.114c.392-.242.392-.212 0-.454l-11.55-7.114a1.037 1.037 0 0 0-.36-.156c.004 0 .05-.006.111-.038a.323.323 0 0 0 .135-.118.795.795 0 0 0-.042.303zm.943-1.268l11.549 7.113c1.35.831 1.339 2.185 0 3.01l-11.55 7.113c-1.348.831-2.442.269-2.442-1.268v-14.7c0-1.531 1.104-2.093 2.443-1.268z" fill-rule="evenodd"/></symbol><symbol id="businesswire" viewBox="0 0 424.4 170.85"><defs><style>.adcls-1{fill:#0075b3}.adcls-2{fill:#6cb33f}.adcls-3{fill:#b1d295}.adcls-4{fill:#807f83}</style></defs><path class="adcls-1" d="M30.66 112.42l-1.5-.32 1.48-.34c5.33-1.24 7.81-4.1 7.81-9 0-7.13-4.51-10.75-13.4-10.75h-25v42h23.47c10.06 0 16.07-4.46 16.07-11.94-.07-5.28-3.36-8.9-8.93-9.65zm-15.39-11.89h2.46c2.35 0 5.46.43 5.46 4.12 0 3-1.82 4.53-5.41 4.52h-2.52v-8.64zm2.62 25h-2.63v-8.87h2.46c4.14 0 6.23 1.39 6.23 4.12 0 3.31-1.81 4.72-6.06 4.72zm35.63 9.39a9.7 9.7 0 0 0 9.08-5.23l.56-.78s.36 4.68.4 5.13h13.39v-29h-13.7v18.18c0 2.28-1.14 3.58-3.11 3.58s-2.87-1.31-2.87-3.7v-18.06H43.52v19.42c0 6.83 3.48 10.46 10 10.46zm41.89 0c10.73 0 15.94-3.34 15.95-10.21 0-5.7-3.21-7.8-14.33-9.35-3.57-.5-4.6-1.12-4.6-2.75s1.1-2.46 3.34-2.46a3.16 3.16 0 0 1 2.33.72 3.92 3.92 0 0 1 .76 2.7h11.59c-.34-6.54-5.08-9.48-15.37-9.48-9.27 0-14.59 3.5-14.59 9.62 0 5.08 2.39 7.18 9.85 8.64l5.5 1.07.81.16c1.62.32 2.41 1.13 2.4 2.46 0 1.86-1.07 2.8-3.16 2.8a3.22 3.22 0 0 1-2.57-1 5.25 5.25 0 0 1-.91-3.15H80.09c.24 7 5.1 10.23 15.32 10.23zm32.75-.84v-29.05h-13.7v29.05h13.71zm21.7-21.75c1.85 0 2.87 1.31 2.87 3.7v18.07h13.72v-19.43c0-7-3.35-10.52-10-10.52a9.69 9.69 0 0 0-9.07 5.22l-.57.78s-.36-4.66-.4-5.12h-13.37v29.05h13.72V115.9c0-2.28 1.13-3.58 3.1-3.57zm40.83 12.83a3.76 3.76 0 0 1-3.73 3.07c-3 0-4.28-1.6-4.28-5.17v-1.14h20.41v-1.72c0-10.62-5.48-16-16.29-16s-17.28 5.51-17.28 15.19c0 13.56 10.13 15.59 16.17 15.59 10.33 0 15.71-3.13 16.93-9.82h-12zm-8-9.66c0-2.87 1.54-4.57 4.12-4.57s4 1.71 4 4.57v.69h-8.1v-.69zm37.63 19.49c10.73 0 15.94-3.33 15.94-10.21 0-5.7-3.22-7.79-14.33-9.34-3.56-.5-4.59-1.12-4.59-2.75s1.09-2.46 3.34-2.46a3.13 3.13 0 0 1 2.33.73 3.89 3.89 0 0 1 .75 2.7h11.59c-.33-6.54-5.08-9.48-15.37-9.48-9.27 0-14.59 3.5-14.59 9.62 0 5.08 2.4 7.18 9.85 8.64l5.55 1.08.77.15c1.62.32 2.41 1.13 2.41 2.46 0 1.86-1.07 2.81-3.17 2.8a3.24 3.24 0 0 1-2.57-1 5.27 5.27 0 0 1-.91-3.15h-12.33c.24 6.96 5.11 10.21 15.33 10.21zm33.46.02c10.72 0 15.94-3.34 15.94-10.21 0-5.7-3.21-7.8-14.32-9.35-3.57-.5-4.6-1.12-4.6-2.75s1.1-2.46 3.35-2.46a3.11 3.11 0 0 1 2.31.72 4 4 0 0 1 .76 2.7h11.59c-.34-6.54-5.08-9.48-15.37-9.49-9.27 0-14.59 3.51-14.59 9.62 0 5.08 2.4 7.18 9.87 8.64l6.3 1.23c1.62.32 2.41 1.13 2.41 2.46 0 1.87-1.07 2.81-3.17 2.81a3.18 3.18 0 0 1-2.56-1 5.16 5.16 0 0 1-.92-3.15h-12.33c.24 6.97 5.07 10.22 15.33 10.23zm69.45-42.88l-3.57 26.54-.38 1.95-4.2-28.49h-17l-3.92 26.54-.42 2-3.81-28.49h-14.5c.14.66 9 41.6 9.05 42h17.82c.07-.47 3.92-27.37 3.92-27.37l.4-1.92s4.11 28.83 4.18 29.29h17.82c.09-.43 9-41.36 9.1-42h-14.49zm29.23 42.04v-29.05h-13.7v29.05h13.71zm23.37-19.25a22.07 22.07 0 0 1 5.68.76v-10.2a7.58 7.58 0 0 0-3.5-.74c-2 0-3.79 1.14-5.62 3.49l-.42.54s-.36-3.25-.4-3.68h-13.38v29.05h13.72V118.9a3.64 3.64 0 0 1 3.92-3.98zm28.93 10.31a3.76 3.76 0 0 1-3.73 3.07c-3 0-4.28-1.6-4.28-5.17v-1.21h20.4v-1.72c0-10.62-5.48-16-16.29-16s-17.24 5.55-17.24 15.22c0 13.56 10.12 15.59 16.16 15.59 10.34 0 15.71-3.13 16.94-9.82h-12zm-8-9.66c0-2.87 1.53-4.57 4.11-4.57s4 1.71 4 4.57v.69h-8.1v-.69z"/><path class="adcls-2" d="M250.52 28.44c-68.34 6-148.94 35.58-208.4 72.61h3.51c71.86-37.66 144.76-60.38 204.66-64.87-.07-.92-.11-1.84-.11-2.77a37.89 37.89 0 0 1 .34-4.97zm74.29 5.19a37.38 37.38 0 0 1-1 8.39c32.51 9.52 54.77 29.43 61.41 61h1.09c-4.62-37.82-27.93-59.59-61.5-69.39z"/><path class="adcls-3" d="M293.65 12.7a.22.22 0 0 0 .32 0l9.18-8.91a.27.27 0 0 0 .06-.11l-.73-.37-8.84 9.07a.23.23 0 0 0 .01.32zm2.09 1.92a.23.23 0 0 0 .32 0l9.73-9.36a.13.13 0 0 0 0-.08l-.77-.48-9.32 9.59a.22.22 0 0 0 .05.32zm1.57 2.41a.23.23 0 0 0 .32 0l10.53-10.17a.26.26 0 0 0 0-.05c-.25-.19-.51-.38-.77-.56L297.32 16.7a.23.23 0 0 0 0 .32zm-8.5-11.4a.23.23 0 0 0 .32 0l5-4.83a.2.2 0 0 0 0-.23l-.71-.13-4.66 4.85a.23.23 0 0 0 .05.33zm-4.79-2.95l2.5-2.38a.24.24 0 0 0 .05-.26h-.68l-2.16 2.32a.23.23 0 0 0 0 .32.23.23 0 0 0 .29 0zm14.56 17.14a.22.22 0 0 0 .32 0l11.55-11.11c-.25-.23-.51-.45-.77-.67l-11.11 11.49a.22.22 0 0 0 .01.29zm-10.16-9.9a.23.23 0 0 0 .33 0l8.61-8.39a.21.21 0 0 0 0-.19l-.69-.2-8.27 8.45a.23.23 0 0 0 .02.33zm2.89 1a.23.23 0 0 0 .32 0l8.64-8.38a.22.22 0 0 0 .06-.14l-.76-.3-8.28 8.51a.24.24 0 0 0 .02.31zM290.52.1l-.74-.05-2.72 2.9a.22.22 0 0 0 0 .32.23.23 0 0 0 .31 0m12.3 19.18a.19.19 0 0 0-.05.13.25.25 0 0 0 .08.17.26.26 0 0 0 .34 0l.15-.15 12.27-11.78a.22.22 0 0 0 .06-.14l-.68-.71a.2.2 0 0 0-.15.06l-11.83 12.26zm-44.76 5.69l3.76-3.87a.22.22 0 0 0 0-.32.23.23 0 0 0-.32 0l-3.64 3.48c0 .23-.08.47-.13.7a.21.21 0 0 0 .06.06.24.24 0 0 0 .29-.06zm1.24-4.89l2.05-2.12a.233.233 0 0 0-.33-.33L256 22.57c-.08.21-.15.42-.22.63a.31.31 0 0 0 .07.09.23.23 0 0 0 .31-.05zm3.86 7.17a.24.24 0 0 0-.33 0l-5.51 5.21c0 .28 0 .55.06.82a.21.21 0 0 0 .24-.06l5.52-5.65a.23.23 0 0 0 .03-.33zm-5.58 2.19l4.87-5.07a.23.23 0 0 0 0-.32.23.23 0 0 0-.32 0l-4.8 4.58v.84a.22.22 0 0 0 .26-.05zm9.89 1.9a.23.23 0 0 0-.32 0l-8.63 8.27c.1.36.2.72.31 1.07a.24.24 0 0 0 .18-.07l8.47-9a.23.23 0 0 0 0-.28zm35.2-7.96a.23.23 0 0 0-.06.16.22.22 0 0 0 .07.16.23.23 0 0 0 .33 0c.23-.24 9.57-9.22 14.48-13.94a.53.53 0 0 0 0-.06c-.23-.29-.46-.58-.69-.86a.18.18 0 0 0-.1 0l-14 14.51zm-1 5.29a.23.23 0 0 0 .33 0c1.55-1.58 17-16.38 17.13-16.54a.25.25 0 0 0 .06-.12c-.22-.33-.45-.66-.67-1a.22.22 0 0 0-.16.06l-16.69 17.28a.23.23 0 0 0 0 .32zm-37.26 1.26a.23.23 0 0 0-.32 0l-6.37 6c.06.33.11.66.18 1a.22.22 0 0 0 .22-.06l6.29-6.59a.23.23 0 0 0-.01-.35zm60.08-3.31q-.1-.85-.24-1.68l-19.79 20.36-18.79 18.52c.64.1 1.29.19 1.94.25h.12l20.19-21zm-16.4 8.13c.37-.48 11-10.5 15.06-14.32-.13-.43-.27-.85-.42-1.27a.24.24 0 0 0-.17-.1.23.23 0 0 0-.2.09c-.29.36-9.93 10.22-15 15.38-.29.4-6.91 6.95-11.3 11.26-.37.48-11.31 10.85-17 16.27.57.22 1.15.42 1.74.61l16.65-17.22zm1.07 3l14.78-14.4c-.12-.54-.24-1.07-.39-1.6l-11.79 12c-.35.47-10.26 10.3-14 14.05l-15.75 15.16c.67.18 1.34.36 2 .5l13-13.5zm-4.13-7.7c.36-.46 11.17-10.81 15.79-15.23-.24-.46-.49-.91-.76-1.35-1.63 2-16.45 17.24-16.6 17.39-.26.32-8.48 8.46-12.79 12.71l-16.76 16q.71.42 1.44.8l17-17.64zm-3.44 7.24l9-9 11.34-10.78a.22.22 0 0 0 0-.28l-.45-.81a.22.22 0 0 0-.17-.11.22.22 0 0 0-.19.07l-12.25 12.64c-.37.55-10 10.16-16.47 16.5-.34.49-8.29 8-16 15.29a.28.28 0 0 0-.06.09c.51.25 1 .48 1.56.71l7.62-8c.31-.4 10.64-10.86 16.06-16.36zm3 24.12a33.83 33.83 0 0 0 17.21-17.19c-4.59 4.62-12.4 12.39-17.13 17.15zm-6.4 2a2.54 2.54 0 0 1 .63 0c.83-.2 1.65-.43 2.46-.68l21.9-22.09c.3-1 .56-2 .77-3-4.37 4.49-25.73 25.68-25.73 25.68zm26.49-33c0-.66 0-1.32-.07-2l-17.59 18c-.48.77-16 15.92-18 17.84.6 0 1.21.05 1.82.05l.61-.12 14.43-14.9zm-31.46 33.86h.06c.9-.06 1.8-.15 2.68-.28l28.44-29c.1-.78.18-1.57.23-2.36-3.96 4.43-31.38 31.51-31.38 31.51zm.79-27.84a.22.22 0 0 0-.32 0l-22.39 21.58c.45.32.9.63 1.35.92l21.37-22.2a.23.23 0 0 0 .02-.43zm-20-3.63a.24.24 0 0 0-.32 0l-13.13 12.48c.19.38.38.76.58 1.13a.25.25 0 0 0 .11-.06l12.77-13.22a.24.24 0 0 0 .04-.46zm2.45 1.54a.22.22 0 0 0-.32 0l-14.15 13.41c.23.39.47.77.72 1.15a.17.17 0 0 0 .08 0l13.73-14.29a.23.23 0 0 0-.01-.4zm-7.47-.64a.23.23 0 0 0-.32 0l-9.31 8.76c.14.37.28.73.43 1.09a.23.23 0 0 0 .15-.06l9.06-9.45a.236.236 0 0 0 .04-.47zm9.42 2.13a.23.23 0 0 0-.32 0l-14.71 14.23c.25.35.5.7.76 1h.05l14.22-14.93a.23.23 0 0 0 .05-.38zm6.33 2.05a.22.22 0 0 0-.32 0l-17.34 16.59c.33.33.67.64 1 1l16.65-17.23a.247.247 0 0 0 .06-.49zm-3.28-.84a.22.22 0 0 0-.32 0l-16 15.3c.29.35.59.7.9 1l15.39-16a.23.23 0 0 0 .08-.42zm7.41.71a.23.23 0 0 0-.32 0l-19.36 18.52c.38.33.78.66 1.19 1l18.5-19.16a.23.23 0 0 0-.01-.36z"/><path class="adcls-2" d="M290.33 18.05l-.19.01.14.28.2.17.23.01.23-.05.22-.06.2-.1.18-.18.21-.08h.25l.18-.09.05-.3.05-.3-.06-.31-.13-.3.02-.22.25-.11-.1-.3-.16-.24-.2-.08-.22-.01-.2-.03-.21.01-.19.08-.15.19-.12.24-.13.22-.23-.05-.15.14-.07.29.1.26.19.15.03.3-.04.34-.18.12z"/><path class="adcls-2" d="M315.52 30.28l.32-.14.14-.17.42.45.43.47.44.56.47.4.49.67.34 1.08.57.28.49.86.42.81.28 1.11.78.24.38-1 .14-1.27v-.92a33.69 33.69 0 0 0-.75-6.91v-.17c0-.15-.05-.3-.09-.44l-.19-.83a33.77 33.77 0 0 0-22.94-23.78l-.9-.21-.65-.13-.43-.06.48.12.65.13.18.1.66.23h-.3l-1-.18.24.2.19.16 1 .35 1 .42 1.06.45.9.29.28.39-.6.08.48.31 1.2.61.62.37h-1.2l.94.34v.38l-.39.26-.3.2.39.54 1 .6-1.12-.13.17.42-1.1-.46-1.21-.15-1.3-.2h-1.18l-.7.56-.43.74-.24.68.56.94-.13 1-.75.83-.21 1 .78 1.22 1.22-.06 1.19.21 1.14 1.09.8-.42-.44-1.25-.06-1.19-1.07-1 .29-1-.19-1 .79.84.18 1.12 1.4.82 1-.68-.34.77.47 1-.74.54.6 1.35-1.21.65-1.06.22-1.07.54h-.73l-.47.66-.37.48-.21.28-.39.67-.74.5-.2.73-.48.54-.9-.22-.22.25-.43.22-.32.17-.34.39.45.33.63.11.48.34.23.47.43.38v1.6l-.46.25h-.74l-.72.08h-.83l-.86-.13-.57.47.2.75.17.8-.11.78-.26.72.38.76v.77l.8-.12.75.2.61.57.56-.5.8-.13.71-.21.55-.54.27-.7v-.5l.09-.72.31-.69.61-.42.51-.53-.26-.74.47-.48.77.12.61-.15.46-.45.33-.51.71.09.37.58.49.51.6.19.58.37.55.25.57.43.55.35.21.66.49.57.09-1-.35-.54v-.72l.88.39V25l-1-.48-.57-.41-.47.06-.68-.29-.46-.62-.63-.37-.23-.41-.34-.65.45-.08.5.12.31.23.54.48.46.1.33.24.53.28.5.2.46.21.31.31.12.44.19.39.35.21.3.3.29.3.3.23.39-.11h.56v-.61l1.09-.86.51.7.76.74 1-.26.93-.21.81-.74.87.92-.31.24.08.75.17.76-.01.81-.19.43-.33.16h-.44l-.44.41-.5.52-.91.14-1.23.1h-1.46l-.35 2-1.84-.45-1.72-.1-2-.82-.23-2.16-1.71.51-1.79 1.26-1.72.81-1.72.57-2.18.57-1.24.34-1.4 1.71-.82 2.27-1.89 1.24-1.18 2.12-1.11 2.15.56 2.36-.94 2.19.66 2.17 2.18 1.58 1.65 1.86 2.54 1.31 3-.72 3.17-.88 3-.5 2.72.37-.36 2.67 1.6 1.32.38 1.63-.16 1.4-1.18 1.38-.52 1 .34.37.18.31-.08.34-.16.32-.1.24v.16l.09.07h.12v.1l-.09.06a33.65 33.65 0 0 0 16.4-26.31v.22l-.34.83-1.33 1-.75-1.3-1.29-1.12-1.29-1.32-.58-1.34-.91-.62-1.14-1 1.53-.91zm5.26-3.6z"/><path class="adcls-2" d="M291.97 15.33l.42.41.41.48.49-.04.37.53-.43.17-.29.45.12.67-.12.37.46-.1.4.22-.4.18-.26.44-.4.34.26.1.38-.05.33-.11.33-.11.32-.12.28-.17.28-.17.33.04.32-.03.31-.08.29-.25-.13-.39.02-.27.13-.43-.39-.29-.42-.07-.36-.51-.38-.46-.44-.33-.35-.56-.44-.28.22-.51-.09-.54-.2-.17-.27-.13-.27.04-.21-.08-.4-.06-.23.51-.38.25.39.4v.71zm-1.96-11.62l.51-.3-.74-.09-.54-.12.31-.12-.35-.31-.77-.15h-.85l-.9.1h-.84l-.88.09-.9.15-.88.27h-.9l-.56.38-.46.45.69.2-.1.57-.63.58-.77.55.1.47-.72.24-.49.54.14.25-.85.39-.64.5-.42.54-.17.46-.66-.43-.09-.74-1 .15-1.47.35 1.49-1.15.35-.51-.06-.47.15-.48.06-.4v-.34l-.56-.16-.24-.25.51-.46.48-.4.28-.32.35-.3.26-.27-.09-.15.31-.18.87-.24-.22-.08.09-.17-.51-.05v-.15l-1 .34h-.49l-1 .41-.56.32-.26-.05h-.47l-.55.24a33.78 33.78 0 0 0-18 21.66l-.12-.13a33.5 33.5 0 0 0-1.16 8.75c0 .87 0 1.73.11 2.57a1.58 1.58 0 0 0 .18-.08v.34l.26 1.13.43.81.34 1 .43.81.43.82.52.74.63.2.6.89.49 1.22.16-1.26-.15 1.24.81.94.84 1 1.14 1.89.29.53h-.06l-.56-.13.59 1.58v1.34l-.87.43-.68.54.55 1.26v.05a34.64 34.64 0 0 0 2.81 3.36l.14.15a34.47 34.47 0 0 0 3.18 2.91l.16.12c.52.42 1.06.81 1.6 1.2l.16.11a33.37 33.37 0 0 0 3.66 2.22l.28.14c.63.31 1.26.62 1.91.9l.6.14 1.21.24 1.13.18 1 .12h1.46l.69-.08.29-.18.55-.21 1.22-.12 1.26-.16 1.23-.18.84-.38.61-.5.51-.57.12-.64 1.15-.66 1.21-.75.77-.9-.51-.76-1.62-.16-1.51-.43h-1.89l-1.7-.49-1.78-.43-1.91-.31.23-1-1-1.24-1.71-.83-1.9-.42-1.44-1.09-1.44-1.21-1.62-1-1.7-.33-1.7-.65-1.18-1.4-.69-.07-1.32-.28-1.25.19.11-.46.23-1.05-.78-1-.89-.47-.81-.42-.18-.73.28-.74.43-.69.36-.77.16-.64-.64-.39-.61-.18-.48.07-.27.6-.34.31-.45-.08-.44-.19h-.43l-.3-.49-.34-.59-.18-.78-.12-.87.09-.8v-.87l.29-.95.49-.69.25-.95.49-.56h.59l.58-.22.57.13.43.51.43.35.33.55.47.39.19-.6.21-.43.62.5.76.26.35.9.82.06.31.95-.15.93.07.94.14.88.27.71.57-.28.26-.67v-1.57l-.07-.72v-.75l.21-.74.53-.55.69-.2.69-.39.74-.14.73-.38.59-.07.58-.71.29-.85v-.79l.53-1 .59.6 1-.81.65-.56 1.07.1 1-.1.12-1.19 1.21-.45 1.24-.3 1 .16-.52 1 1-.47 1-.19.92-.05.69-.41.38-.34-.12-.68-.54.36-.34.5h-.6l-.49-.21-.45-.34-.22-.58-.19-.57.36-.36.35-.25.21-.54-.57-.22h-.62l-.61.14-.56.12-.51.24-.45.33-.42.27-.48.1.22-.17.35-.26.33-.2.28-.22.32-.24.38-.18.49-.26.55-.18.8-.31.89.11.9.19.91.22 1-.2 1-1 .68.44.56-.88-.51-.72-.41-.63-.51-.7-.61-.58-.18-.67.08-.83-.28-.95-.25-.9-.72.76-.84.45-.46-.38-.08-.86v-.82l-.42-.64-.57-.31-.63-.44-.88.2-.65 1.37-.77.76-.48 1.46-1.5.75-.86 1.46-.83.78-.42-1.2.86-1.73-1-.49-.43-1-.42-.88-.22-.83.08-1 1.68-1.19 1.36-.4 1.2-.39h.11l.07.16.59.16.56-.52.51-.4.58-.12h1l1.36-1.35-.39-.45h.5l.76-.13.71-.27.55-.41.64-.22.71-.05.67-.14.64-.18.6-.23.14-.1.21-.06.05-.07.13-.1.22-.46.12-.48h-.4l.62-.35.44-.39.26-.43v-.48l.43-.37-.06-.44.27-.4z"/><path class="adcls-1" d="M424.4 101.98a4.73 4.73 0 1 1-4.73-4.73 4.74 4.74 0 0 1 4.73 4.73zm-8.7 0a4 4 0 1 0 4-4 4 4 0 0 0-4 3.94zm2.19-2.64h1.83c.63 0 1.85 0 1.85 1.4a1.22 1.22 0 0 1-1 1.3c.72 0 .78.53.88 1.2a5.16 5.16 0 0 0 .28 1.4h-1.12c0-.25-.2-1.6-.2-1.68a.48.48 0 0 0-.55-.45h-.94v2.13h-1v-5.31zm1 2.33h.83a.71.71 0 0 0 .8-.75.65.65 0 0 0-.78-.73h-.85v1.48z"/><path class="adcls-4" d="M94.08 150.64l5.53 15.94h-3.44l-1.15-3.44h-6.3l-1.2 3.44h-3.26l5.75-15.94h4.06zm.09 9.92l-2.2-6.79-2.36 6.79h4.56zm13.01-9.9h6a7.87 7.87 0 0 1 3.92.75 4 4 0 0 1 1.79 3.39 3.17 3.17 0 0 1-.93 2.38 4.31 4.31 0 0 1-1.81 1.08 3.81 3.81 0 0 1 3.37 3.88 4.1 4.1 0 0 1-2.34 3.75 10.22 10.22 0 0 1-4 .64h-6v-15.87zm3.26 6.48h2.38c1 0 2.73 0 2.73-2.05s-1.68-2-2.8-2h-2.32v4zm0 6.88h2.32c1.57 0 3.33 0 3.33-2.14s-2.05-2.27-3.68-2.27h-2v4.41zm13.73-2.18c0 .73 0 3 2.27 3a1.82 1.82 0 0 0 1.94-1.54h3a3.73 3.73 0 0 1-1.06 2.43 5.41 5.41 0 0 1-3.9 1.3 5.54 5.54 0 0 1-3.92-1.39 7.22 7.22 0 0 1 .88-9.61 5.57 5.57 0 0 1 3.13-.93 4.78 4.78 0 0 1 4.5 2.69 8.27 8.27 0 0 1 .66 4.08h-7.48zm4.14-2c0-.51 0-2.49-1.94-2.49-1.43 0-2 1.19-2.09 2.49h4zm5.21-1.66c0-.53-.09-2.14-.15-2.78h3.06l.07 2.14c.42-.95 1.15-2.29 3.79-2.16v2.93c-3.31-.31-3.51 1.39-3.51 2.78v5.49h-3.26v-8.4zm7.5-7.54h3.24v9.39l3.37-4.65h3.68l-3.79 4.85 4.06 6.35h-3.86l-3.44-6.06v6.06h-3.26v-15.94zm13.78 12.72a1.61 1.61 0 0 0 1.85 1.52 1.47 1.47 0 0 0 1.72-1.32c0-.51-.26-.9-1.54-1.26l-2-.55c-.9-.26-2.82-.82-2.82-3.09s2-3.48 4.87-3.48c2.29 0 4.15 1.06 4.23 3.29h-3a1.37 1.37 0 0 0-1.59-1.32 1.31 1.31 0 0 0-1.54 1.1c0 .75.55.9 1.52 1.17l2 .55c2 .55 3 1.59 3 3.11 0 1.92-1.65 3.84-5.12 3.84a5 5 0 0 1-3.81-1.37 3.18 3.18 0 0 1-.82-2.18h3.06zm8.14-12.7h3.24v6.26a3.59 3.59 0 0 1 3.22-1.68 4 4 0 0 1 3.24 1.5 5.32 5.32 0 0 1 .73 3v6.77h-3.25v-6.59c0-.64 0-2.43-1.83-2.43a2 2 0 0 0-2.09 2.27v6.81h-3.29v-15.91zm13.01 0h3.48v2.84h-3.48v-2.84zm.11 4.76h3.26v11.16h-3.26v-11.16zm5.86 2.76c0-.53-.09-2.14-.15-2.78h3.06l.07 2.14c.42-.95 1.15-2.29 3.79-2.16v2.93c-3.31-.31-3.5 1.39-3.5 2.78v5.49h-3.27v-8.4zm10.27 3.66c0 .73 0 3 2.27 3a1.82 1.82 0 0 0 1.94-1.54h3a3.73 3.73 0 0 1-1.06 2.43 5.41 5.41 0 0 1-3.9 1.3 5.54 5.54 0 0 1-3.92-1.39 7.21 7.21 0 0 1 .88-9.61 5.57 5.57 0 0 1 3.13-.93 4.78 4.78 0 0 1 4.5 2.69 8.27 8.27 0 0 1 .66 4.08h-7.48zm4.15-2c0-.51 0-2.49-1.94-2.49-1.43 0-2 1.19-2.09 2.49h4zm12.02-9.2h3.42v6.37h6v-6.37h3.46v15.94h-3.42v-7h-6.06v7h-3.42v-15.94zm21.85 15.94a8.89 8.89 0 0 1-.11-1.52 4.3 4.3 0 0 1-6.11.9 3.45 3.45 0 0 1-1-2.45 3.7 3.7 0 0 1 2.36-3.46 11.63 11.63 0 0 1 4.41-.62 4.33 4.33 0 0 0-.15-1.48 1.51 1.51 0 0 0-1.46-.93 1.48 1.48 0 0 0-1.23.62 1.67 1.67 0 0 0-.24 1h-3.16a3.12 3.12 0 0 1 1.26-2.62 5.82 5.82 0 0 1 3.37-.9 5.35 5.35 0 0 1 4 1.43 4.4 4.4 0 0 1 .77 2.73v4.48a13.46 13.46 0 0 0 .26 2.82h-3zm-4-3.44a1.54 1.54 0 0 0 1.59 1.59 1.85 1.85 0 0 0 1.39-.64 4.09 4.09 0 0 0 .62-2.76c-2.12-.17-3.62.49-3.62 1.81zm15.86 3.29a10.13 10.13 0 0 1-2.54.35c-3.29 0-3.29-2.07-3.29-3v-6.11h-2.14v-2.16h2.14v-2.18l3.24-1.19v3.37h2.65v2.16h-2.61v5c0 1 0 1.65 1.48 1.65a8.25 8.25 0 0 0 1.1-.07v2.14zm1.85-15.77h3.24v6.26a3.59 3.59 0 0 1 3.22-1.68 4 4 0 0 1 3.24 1.5 5.32 5.32 0 0 1 .73 3v6.77h-3.24v-6.59c0-.64 0-2.43-1.83-2.43a2 2 0 0 0-2.1 2.27v6.81h-3.26v-15.91zm19.8 15.92a8.9 8.9 0 0 1-.11-1.52 4.31 4.31 0 0 1-6.11.9 3.45 3.45 0 0 1-1-2.45 3.7 3.7 0 0 1 2.36-3.46 11.63 11.63 0 0 1 4.41-.62 4.33 4.33 0 0 0-.15-1.48 1.51 1.51 0 0 0-1.45-.93 1.48 1.48 0 0 0-1.23.62 1.67 1.67 0 0 0-.24 1H257a3.12 3.12 0 0 1 1.26-2.62 5.82 5.82 0 0 1 3.37-.9 5.35 5.35 0 0 1 4 1.43 4.4 4.4 0 0 1 .77 2.73v4.48a13.46 13.46 0 0 0 .26 2.82h-3zm-4-3.44a1.54 1.54 0 0 0 1.59 1.59 1.85 1.85 0 0 0 1.39-.64 4.08 4.08 0 0 0 .62-2.76c-2.11-.17-3.61.49-3.61 1.81zm11.01-7.69l2.05 8.4 2.36-8.4h3.59l2.34 8.4 2.18-8.4h3.27l-3.81 11.13h-3.55l-2.29-8.25-2.35 8.25h-3.59l-3.64-11.13h3.46zm23 11.13a9 9 0 0 1-.11-1.52 4.3 4.3 0 0 1-6.11.9 3.45 3.45 0 0 1-1-2.45 3.7 3.7 0 0 1 2.36-3.46 11.63 11.63 0 0 1 4.41-.62 4.36 4.36 0 0 0-.15-1.48 1.51 1.51 0 0 0-1.46-.93 1.48 1.48 0 0 0-1.24.62 1.67 1.67 0 0 0-.24 1h-3.2a3.12 3.12 0 0 1 1.26-2.62 5.82 5.82 0 0 1 3.37-.9 5.35 5.35 0 0 1 4 1.43 4.4 4.4 0 0 1 .77 2.73v4.48a13.4 13.4 0 0 0 .26 2.82h-3zm-4-3.44a1.54 1.54 0 0 0 1.59 1.59 1.85 1.85 0 0 0 1.39-.64 4.1 4.1 0 0 0 .62-2.76c-2.11-.17-3.61.49-3.61 1.81zm11.28-7.69l2.45 7.72 2.49-7.72h3.24l-4.21 10.94-1.35 4.43h-3.29l1.41-4.19-4.23-11.18h3.53zm25.4.39c-.07-.55-.26-2.8-2.58-2.8-2.54 0-3.59 2.65-3.59 5.93 0 .95 0 5.47 3.33 5.47a2.8 2.8 0 0 0 2.87-3h3.59a5.46 5.46 0 0 1-1.43 3.75 6.25 6.25 0 0 1-4.65 1.79c-5.49 0-7.28-4.06-7.28-8 0-5 2.82-8.4 7.3-8.4 3.48 0 5.93 2.12 5.93 5.29h-3.48zm10.62-.66c4 0 5.78 2.73 5.78 5.84s-1.81 6-5.84 6c-3.17 0-5.69-2-5.69-5.87 0-2.73 1.37-5.97 5.75-5.97zm0 9.53c1.43 0 2.4-.86 2.4-3.81 0-1.48-.29-3.53-2.45-3.53-2.38 0-2.4 2.76-2.4 3.77.05 2.49.94 3.57 2.5 3.57zm8.03-7.17c0-.71 0-1.39-.11-2.09h3.15l.11 1.43a3.83 3.83 0 0 1 3.44-1.67 3.39 3.39 0 0 1 3.51 2.09 3.7 3.7 0 0 1 3.57-2.07 3.65 3.65 0 0 1 3.4 1.79 6.4 6.4 0 0 1 .55 3.29v6.28h-3.29v-6.55c0-1.19-.18-2.51-1.87-2.51-2 0-2 1.83-2 3.48v5.58h-3.29v-6.67c0-.86 0-2.45-1.83-2.45-2.05 0-2.05 1.76-2.05 2.51v6.55h-3.29v-9zm23.55-2.09l.09 1.59a3.72 3.72 0 0 1 3.4-1.81c2.89 0 4.63 2.16 4.63 5.56 0 3.15-1.63 6-4.85 6a3.57 3.57 0 0 1-3.11-1.43v5.56h-3.33v-15.47h3.18zm4.81 5.47c0-1.32-.33-3.59-2.25-3.59-1.06 0-2.56.79-2.56 3.79 0 .66 0 3.48 2.43 3.48 1.54 0 2.38-1.48 2.38-3.68zm12.01 5.66a9 9 0 0 1-.11-1.52 4.3 4.3 0 0 1-6.11.9 3.45 3.45 0 0 1-1-2.45 3.7 3.7 0 0 1 2.36-3.46 11.63 11.63 0 0 1 4.41-.62 4.39 4.39 0 0 0-.15-1.48 1.51 1.51 0 0 0-1.46-.93 1.48 1.48 0 0 0-1.24.62 1.67 1.67 0 0 0-.24 1h-3.2a3.12 3.12 0 0 1 1.26-2.62 5.82 5.82 0 0 1 3.37-.9 5.36 5.36 0 0 1 4 1.43 4.4 4.4 0 0 1 .77 2.73v4.48a13.4 13.4 0 0 0 .26 2.82h-3zm-4-3.44a1.54 1.54 0 0 0 1.59 1.59 1.85 1.85 0 0 0 1.39-.64 4.09 4.09 0 0 0 .62-2.76c-2.11-.17-3.61.49-3.61 1.81zm9.36-5.71s0-1.26-.07-2h3.13l.09 1.68a3.85 3.85 0 0 1 3.62-1.94 3.39 3.39 0 0 1 3.4 2.09 9.24 9.24 0 0 1 .31 3.33v6h-3.33v-6.92a2.67 2.67 0 0 0-.18-1.21 1.7 1.7 0 0 0-1.59-.95 2 2 0 0 0-1.7.86 3 3 0 0 0-.4 1.7v6.53h-3.29v-9.15zm14.73-1.98l2.45 7.72 2.49-7.72h3.24l-4.21 10.94-1.35 4.43h-3.29l1.41-4.19-4.28-11.18h3.54z"/></symbol><symbol viewBox="0 0 32 32" id="chat-bubbles"><g fill-rule="evenodd"><path d="M17.561 19.437a6.977 6.977 0 0 1-2.756.563h-6.01a6.953 6.953 0 0 1-3.828-1.142C3.098 19.996 0 20 0 20c2.175-1.235 2.661-2.816 2.77-3.445A6.966 6.966 0 0 1 1.8 13c0-3.866 3.125-7 6.995-7h6.01c3.863 0 6.995 3.142 6.995 7 0 1.257-.33 2.437-.91 3.457A2.893 2.893 0 0 0 19.3 16c-1.38 0-2.5.895-2.5 2 0 .564.292 1.073.761 1.437z" opacity=".4"/><path d="M25.637 24.855A6.953 6.953 0 0 1 21.805 26h-6.01A6.993 6.993 0 0 1 8.8 19c0-3.858 3.132-7 6.995-7h6.01a6.993 6.993 0 0 1 6.995 7c0 1.291-.35 2.503-.963 3.542.105.62.583 2.215 2.773 3.458 0 0-3.104-.004-4.973-1.145z"/></g></symbol><symbol viewBox="0 0 32 32" id="checkmark"><title>checkmark</title><path d="M12.49 22.764a.75.75 0 0 0 1.06 0l11.468-11.468a.75.75 0 1 0-1.06-1.06l-10.925 10.95-4.015-4.015a.75.75 0 0 0-1.06 1.061l4.532 4.532z" fill-rule="evenodd"/></symbol><symbol viewBox="0 0 16 16" id="checkmark-small"><title>checkmark-small</title><path d="M6.331 11.763a.788.788 0 0 0 1.127 0l5.309-5.384a.816.816 0 0 0 0-1.142.788.788 0 0 0-1.126 0l-4.76 4.8L5.36 8.493a.788.788 0 0 0-1.126 0 .816.816 0 0 0 0 1.142l2.098 2.128z" fill-rule="evenodd"/></symbol><symbol viewBox="0 0 64 64" id="daily-activity"><title>daily-activity</title><g fill-rule="evenodd"><path d="M17 11v42h30V11H17zm0-2h32v46H15V9h2z"/><path d="M17 42h30v1H17z"/><circle cx="32" cy="48" r="2"/><path d="M25.5 34.125a2.625 2.625 0 1 0 0-5.25 2.625 2.625 0 0 0 0 5.25zm0 .875a3.5 3.5 0 1 1 0-7 3.5 3.5 0 0 1 0 7zM24.121 23.071l4.95-4.95.707.707-4.95 4.95-.707-.707zM22 20.95l.707-.707 2.121 2.121-.707.707L22 20.95zM33 21h8v1h-8zM33 31h8v1h-8z"/></g></symbol><symbol viewBox="0 0 32 32" id="data-dots"><title>2weeks</title><g transform="translate(2 9)" fill-rule="evenodd"><rect y="6" width="3" height="3" rx="1"/><rect x="6" width="3" height="3" rx="1"/><rect x="6" y="6" width="3" height="3" rx="1"/><rect x="12" width="3" height="3" rx="1"/><rect x="12" y="6" width="3" height="3" rx="1"/><rect x="18" width="3" height="3" rx="1"/><rect x="18" y="6" width="3" height="3" rx="1"/><rect x="24" width="3" height="3" rx="1"/><rect x="24" y="6" width="3" height="3" rx="1"/><rect y="12" width="3" height="3" rx="1"/><rect x="6" y="12" width="3" height="3" rx="1"/><rect x="12" y="12" width="3" height="3" rx="1"/><rect x="18" y="12" width="3" height="3" rx="1"/></g></symbol><symbol viewBox="0 0 32 32" id="default-profile"><title>default-profile</title><g fill-rule="evenodd"><circle fill="#DEE0E2" cx="16" cy="16" r="12"/><path d="M23.33 25.502A11.948 11.948 0 0 1 16 28c-2.76 0-5.303-.932-7.33-2.498.44-.99.95-1.985 1.511-3 .37-.688.886-1.144 1.552-1.374a2.308 2.308 0 0 1 1.995.23c.74.456 1.556.687 2.442.687.546 0 1.363-.23 2.102-.687a2.308 2.308 0 0 1 1.995-.23c.666.23 1.182.686 1.552 1.374a38.048 38.048 0 0 1 1.51 3zM11 15c0-2.752 2.248-5 5-5 2.747 0 5 2.248 5 5 0 2.751-2.249 5-5 5-2.752 0-5-2.249-5-5z" fill="#BEC2C5"/></g></symbol><symbol viewBox="0 0 32 32" id="down-chevron"><title>down-chevron</title><path d="M16 20.82l-.003.003-.707-.707-5.995-5.995-.707-.707L10.002 12l.708.707 5.29 5.29 5.293-5.288.708-.707 1.413 1.415-.707.707-5.997 5.992-.707.707L16 20.82z" fill-rule="evenodd"/></symbol><symbol viewBox="200 4 26 26" id="expression_0"><path d="M213 30c-7.168 0-13-5.832-13-13 0-7.17 5.832-13 13-13s13 5.832 13 13.001C226 24.168 220.168 30 213 30zm6.587-6.296a.288.288 0 0 0 .174-.37c-.86-2.393-3.64-4.065-6.76-4.065-3.122 0-5.903 1.672-6.764 4.067a.288.288 0 1 0 .544.195c.78-2.17 3.337-3.686 6.22-3.686 2.881 0 5.439 1.516 6.218 3.685a.29.29 0 0 0 .368.174z" stroke="currentColor" fill-rule="evenodd"/></symbol><symbol viewBox="165 4 26 26" id="expression_1"><path d="M178 30c-7.168 0-13-5.832-13-13 0-7.17 5.832-13 13-13s13 5.832 13 13.001C191 24.168 185.168 30 178 30zm-1.35-8.307L178.783 24l2.133-2.307 1.923 2.079a.288.288 0 1 0 .424-.39l-2.347-2.536-2.133 2.307-2.133-2.307-2.134 2.307-1.921-2.08a.288.288 0 1 0-.424.392L174.516 24l2.134-2.307z" stroke="currentColor" fill-rule="evenodd"/></symbol><symbol viewBox="131 4 26 26" id="expression_2"><path d="M131 17c0-7.17 5.832-13 13-13s13 5.832 13 13.001C157 24.168 151.168 30 144 30s-13-5.832-13-13zm7.664 7.22l11.823-2.497a.289.289 0 1 0-.12-.565l-11.823 2.498a.289.289 0 1 0 .12.565z" stroke="currentColor" fill-rule="evenodd"/></symbol><symbol viewBox="79 0 34 34" id="expression_3"><path d="M96 34c-9.374 0-17-7.627-17-17 0-9.376 7.626-17 17-17 9.374 0 17 7.627 17 17.001C113 26.373 105.374 34 96 34zm8.441-9.848a.377.377 0 0 0-.377-.377H87.936a.377.377 0 0 0 0 .754h16.128a.377.377 0 0 0 .377-.377z" stroke="currentColor" fill-rule="evenodd"/></symbol><symbol viewBox="35 4 26 26" id="expression_4"><path d="M48 30c-7.17 0-13-5.832-13-13 0-7.17 5.832-13 13-13s13 5.832 13 13c.002 7.168-5.83 13-13 13zm7.813-10.59a.288.288 0 0 0-.207-.353.289.289 0 0 0-.353.207c-.923 3.507-3.914 5.959-7.276 5.959-3.362 0-6.354-2.45-7.275-5.96a.29.29 0 1 0-.56.147c.988 3.765 4.21 6.393 7.836 6.393 3.624 0 6.847-2.628 7.835-6.393z" stroke="currentColor" fill-rule="evenodd"/></symbol><symbol viewBox="0 4 26 26" id="expression_5"><path d="M0 17C0 9.83 5.832 4 13 4s13 5.832 13 13c.002 7.168-5.83 13-13 13S0 24.168 0 17zm12.998 8.604c-3.346 0-6.318-2.594-7.23-6.306l-.075-.305H20.3l-.075.305c-.909 3.713-3.88 6.306-7.226 6.306zm-6.669-6.116c.94 3.327 3.642 5.623 6.669 5.623 3.026 0 5.73-2.296 6.668-5.623H6.329z" stroke="currentColor" fill-rule="evenodd"/></symbol><symbol viewBox="0 0 32 32" id="external-link"><title>external-link</title><g stroke="currentColor" stroke-width="1.5" fill="none" fill-rule="evenodd" stroke-linecap="round"><path d="M22 18v5.006A2 2 0 0 1 19.994 25h-9.988A2.005 2.005 0 0 1 8 22.994v-9.988A2.01 2.01 0 0 1 10.008 11H15m0 7l9.012-9.012"/><path stroke-linejoin="round" d="M18 8h7v7"/></g></symbol><symbol viewBox="0 0 32 32" id="facebook"><title>facebook</title><path d="M16.82 28H5.324A1.325 1.325 0 0 1 4 26.675V5.325C4 4.593 4.593 4 5.325 4h21.35C27.407 4 28 4.593 28 5.325v21.35c0 .732-.593 1.325-1.325 1.325H20.56v-9.294h3.12l.466-3.622H20.56V12.77c0-1.048.29-1.763 1.795-1.763h1.918v-3.24c-.332-.045-1.47-.143-2.795-.143-2.766 0-4.659 1.688-4.659 4.788v2.67h-3.127v3.623h3.127V28z" fill-rule="evenodd"/></symbol><symbol viewBox="0 0 127 24" id="geekwire"><title>geekwire</title><path d="M9.997 3.23c1.609 0 2.73.143 3.217.23h3.275v6.32h-2.987l-.46-3.132c-.66-.259-1.695-.489-3.045-.489-3.017 0-5.286 2.155-5.286 7.24 0 4.97 1.724 7.556 4.912 7.556 1.293 0 1.982-.115 2.701-.346v-4.136h-1.982v-2.47h7.9v2.47h-.69c-.43 0-.833.517-.833.89v6.205h-2.356c-.165-.243-.23-.632-.804-.632-1.12.546-2.24.862-4.137.862C3.648 23.798 0 20.15 0 13.572 0 6.993 3.907 3.23 9.997 3.23zm13.416 13.588c.172 2.987 1.493 4.366 3.907 4.366 1.867 0 2.527-.66 3.303-1.637h2.385v2.758c-1.235.747-2.873 1.465-6.033 1.465-5.228 0-7.842-2.931-7.842-7.67 0-4.856 3.016-7.843 7.555-7.843 4.51 0 6.866 2.298 6.866 7.412 0 .517-.058 1.005-.058 1.149H23.413zm.057-2.385h5.89c-.144-2.643-.949-3.677-2.672-3.677-1.753 0-2.902 1.092-3.218 3.677zm15.083 2.385c.172 2.987 1.493 4.366 3.906 4.366 1.868 0 2.528-.66 3.304-1.637h2.384v2.758c-1.235.747-2.873 1.465-6.032 1.465-5.229 0-7.843-2.931-7.843-7.67 0-4.856 3.016-7.843 7.555-7.843 4.51 0 6.866 2.298 6.866 7.412 0 .517-.058 1.005-.058 1.149H38.552zm.057-2.385h5.889c-.144-2.643-.948-3.677-2.672-3.677-1.752 0-2.9 1.092-3.217 3.677zm10.687 6.751h1.006c.344 0 .718-.402.718-.718V6.706c0-.316-.374-.776-.718-.776H49.21V3.46h5.286c.46 0 .718.344.718.977V15.87l3.792-3.706c.46-.488.345-1.149-.23-1.149h-.575V8.487h6.809v2.528h-.805c-.402 0-.919.259-1.206.547l-3.218 3.131 3.936 5.687c.402.575.718.806 1.12.806h.288v2.384h-4.108l-4.108-6.091-1.695 1.639v2.068h1.465v2.384h-7.383v-2.386zM94.433 4.581c0-1.098.894-1.993 2.02-1.993 1.124 0 2.019.894 2.019 1.993 0 1.1-.895 1.97-2.02 1.97s-2.02-.87-2.02-1.97zm6.718 16.603h1.005c.345 0 .718-.402.718-.718V11.79c0-.316-.373-.776-.718-.776h-1.12V8.486h5.142c.488 0 .805.431.862 2.184 1.006-1.236 2.184-2.327 4.166-2.327.315 0 .631.057.919.143v3.103h-.719c-2.182 0-3.504.46-4.337.92v8.675h2.097v2.385h-8.015v-2.385zm15.024-4.366c.173 2.987 1.494 4.366 3.906 4.366 1.868 0 2.529-.66 3.305-1.637h2.384v2.758c-1.235.747-2.873 1.465-6.032 1.465-5.229 0-7.843-2.931-7.843-7.67 0-4.856 3.016-7.843 7.555-7.843 4.51 0 6.866 2.298 6.866 7.412 0 .517-.057 1.005-.057 1.149h-10.084zm-23.672-5.81h-1.588c-.482 0-.907.295-1.084.802l-3.046 11.76h-4.854l-3.103-12.468h-.058l-3.132 12.467h-4.854L67.079 8.467l-.432-1.761c-.172-.43-.517-.776-.948-.776h-.46V3.46h8.13v2.47h-2.384l.572 2.537h.075l2.168 9.96h.058L77.593 3.46h3.417l3.707 14.967h.057l2.4-9.933h5.329v-.008h5.43c.458 0 .689.46.689 1.61v10.37c0 .344.373.717.717.717h1.092v2.385h-7.813v-2.385.001h1.091c.345 0 .69-.402.69-.718V11.79c0-.316-.345-.776-.69-.776h-1.206v-.006zm23.729 3.425h5.89c-.144-2.643-.95-3.677-2.672-3.677-1.752 0-2.902 1.092-3.218 3.677zM99.83 7.347a4.367 4.367 0 1 0-6.74 0l.974-.805a3.104 3.104 0 1 1 4.791 0l.975.805z" fill-rule="evenodd"/></symbol><symbol viewBox="0 0 32 32" id="glasses"><title>glasses</title><path d="M23.895 7.883H22.46c-.384 0-.718.31-.718.67 0 .381.334.67.718.67h1.434c1.203 0 2.152.908 2.152 2.007v4.781c-.922-.884-2.177-1.41-3.611-1.41-1.921 0-3.586 1.028-4.432 2.486a11.655 11.655 0 0 0-2.049-.192c-.718 0-1.383.096-2.049.192-.846-1.482-2.51-2.486-4.431-2.486a5.3 5.3 0 0 0-3.611 1.41V11.23c0-1.1.974-2.008 2.152-2.008H9.45c.409 0 .717-.311.717-.67v-.047c0-.359-.307-.622-.665-.622H8.016c-1.999 0-3.611 1.507-3.611 3.371v8.39h.025c.206 2.438 2.356 4.35 4.994 4.35 2.792 0 5.045-2.104 5.045-4.709 0-.335-.025-.645-.102-.956.512-.072 1.024-.12 1.536-.12.538 0 1.05.048 1.537.12a3.886 3.886 0 0 0-.103.956c0 2.606 2.254 4.709 5.045 4.709 2.664 0 4.816-1.936 4.994-4.35h.026v-8.39c.079-1.866-1.536-3.371-3.507-3.371zM9.475 22.654c-1.998 0-3.611-1.506-3.611-3.37 0-1.84 1.614-3.37 3.61-3.37 2 0 3.612 1.506 3.612 3.37.001 1.865-1.613 3.37-3.611 3.37zm12.96 0c-1.998 0-3.61-1.506-3.61-3.37 0-1.84 1.614-3.37 3.61-3.37 1.999 0 3.612 1.506 3.612 3.37 0 1.865-1.615 3.37-3.611 3.37z" fill-rule="evenodd"/></symbol><symbol viewBox="0 0 35 30" id="group"><g stroke="currentColor" fill-rule="evenodd"><circle fill="#FFF" cx="21.882" cy="6.5" r="6"/><path d="M13.226 16.929c5.294-3.31 12.346-3.449 17.64-.14 5.295 3.309 3.548 13.208 3.548 13.208L9.706 30s-1.775-9.763 3.52-13.071z"/><path d="M13.265 16.553c5.237-3.31 12.215-3.449 17.452-.14 5.238 3.309 3.51 13.208 3.51 13.208l-24.444.003s-1.756-9.763 3.482-13.071z" fill="#FFF"/><circle fill="#FFF" cx="13" cy="6.5" r="6"/><path d="M4.265 16.553c5.237-3.31 12.215-3.449 17.452-.14 5.238 3.309 3.51 13.208 3.51 13.208l-24.444.003s-1.756-9.763 3.482-13.071z" fill="#FFF"/></g></symbol><symbol viewBox="0 0 24 40" id="iphone"><defs><rect id="awa" x=".5" y=".5" width="23" height="39" rx="3"/></defs><g stroke="currentColor" fill-rule="evenodd"><use fill="#FFF" xlink:href="#awa"/><path d="M8 3.5h8"/><circle cx="12" cy="35.2" r="1.6"/></g></symbol><symbol viewBox="0 0 32 32" id="left-arrow"><title>left-arrow</title><path d="M10.586 15.337l4.915-4.915.143-.143a.75.75 0 1 0-1.06-1.06l-.144.143-5.721 5.721-.143.143a.76.76 0 0 0-.12.157l-.235.234a.748.748 0 0 0 0 1.06l.178.18 6.007 6.006.18.18a.752.752 0 0 0 1.06-.001.748.748 0 0 0 0-1.06l-.18-.18-4.965-4.965h13.616a.749.749 0 1 0 0-1.5h-13.53z" fill-rule="evenodd"/></symbol><symbol viewBox="0 0 32 32" id="left-chevron"><title>left-chevron</title><path d="M10.593 16.41l-.003-.003.707-.707 5.994-5.994.707-.708 1.415 1.415-.707.707-5.291 5.29 5.288 5.293.707.708-1.415 1.413-.706-.707-5.992-5.997-.707-.707.003-.003z" fill-rule="evenodd"/></symbol><symbol viewBox="0 0 32 32" id="linkedin"><title>linkedin</title><path d="M27 26h-4.862v-7.03c0-1.841-.76-3.097-2.433-3.097-1.28 0-1.991.847-2.322 1.664-.124.294-.105.702-.105 1.11V26h-4.817s.062-12.454 0-13.586h4.817v2.132c.285-.933 1.824-2.263 4.28-2.263 3.048 0 5.442 1.954 5.442 6.162V26zM7.59 10.714h-.031C6.006 10.714 5 9.675 5 8.36 5 7.017 6.036 6 7.62 6c1.581 0 2.554 1.014 2.585 2.355 0 1.317-1.004 2.36-2.615 2.36zm-2.035 1.7h4.288V26H5.555V12.414z" fill-rule="evenodd"/></symbol><symbol viewBox="0 0 32 32" id="list"><title>list</title><path d="M11.5 10.75a.75.75 0 0 1 .755-.75h11.49a.75.75 0 1 1 0 1.5h-11.49a.75.75 0 0 1-.755-.75zm0 5c0-.414.341-.75.756-.75h9.488c.417 0 .756.333.756.75 0 .414-.341.75-.756.75h-9.488a.751.751 0 0 1-.756-.75zm0 5a.75.75 0 0 1 .755-.75h11.49a.75.75 0 1 1 0 1.5h-11.49a.75.75 0 0 1-.755-.75zM8 10.508A.5.5 0 0 1 8.505 10h.99c.279 0 .505.221.505.508v.484a.5.5 0 0 1-.505.508h-.99A.502.502 0 0 1 8 10.992v-.484zm0 5A.5.5 0 0 1 8.505 15h.99c.279 0 .505.221.505.508v.484a.5.5 0 0 1-.505.508h-.99A.502.502 0 0 1 8 15.992v-.484zm0 5A.5.5 0 0 1 8.505 20h.99c.279 0 .505.221.505.508v.484a.5.5 0 0 1-.505.508h-.99A.502.502 0 0 1 8 20.992v-.484z" fill-rule="evenodd"/></symbol><symbol viewBox="0 0 9 10" id="lock"><g stroke="currentColor" fill-rule="evenodd"><path d="M1.224 3.053V4.55h6.221V3.053C7.445 1.4 6.053.06 4.335.06c-1.72 0-3.111 1.34-3.111 2.993zm3.11-1.496c.926 0 1.556.606 1.556 1.496V4.55H2.779V3.053c0-.89.63-1.496 1.555-1.496z"/><rect y="3.512" width="8.462" height="6.488" rx="1"/></g></symbol><symbol viewBox="0 0 91 18" id="mazlo-logo"><title>mazlo-logo</title><g fill-rule="evenodd"><path d="M33.876.127c-.776.002-1.46.376-1.855.992L21.225 17.955h3.924a2.176 2.176 0 0 0 1.826-.992l6.88-10.723 6.881 10.723a2.161 2.161 0 0 0 1.8.991c.025.002 3.95.001 3.95.001L35.69 1.12a2.164 2.164 0 0 0-1.814-.992z" fill="#F7971D"/><path d="M86.128 9.041v-.064c0-2.528-1.838-4.735-4.547-4.735-2.805 0-4.482 2.143-4.482 4.671v.064c0 2.528 1.838 4.735 4.546 4.735 2.806 0 4.483-2.143 4.483-4.67zm-13.867 0v-.064c0-4.927 4-8.926 9.384-8.926 5.354 0 9.32 3.935 9.32 8.862v.064c0 4.927-3.999 8.927-9.384 8.927-5.353 0-9.32-3.936-9.32-8.863zM62.848 13.875V2.59h-.005c0-1.347-1.08-2.437-2.426-2.483h-2.664V17.93h11.185a2.491 2.491 0 0 0 2.334-2.407h.005v-1.649h-8.429M21.394 8.506v6.3l4.819-7.536c-.09-3.96-3.358-7.156-7.37-7.156-2.19 0-4.29 1.071-5.642 2.58C12.045 1.138 9.536.136 7.467.136a7.518 7.518 0 0 0-3.27.751A2.482 2.482 0 0 0 2.471.126V.12H0v15.423c0 1.334 1.073 2.414 2.409 2.45V18h2.534V8.505c0-.28.018-.541.051-.787l.014-.077a4.34 4.34 0 0 1 .132-.61l.029-.083a3.301 3.301 0 0 1 .243-.568 2.671 2.671 0 0 1 .322-.464c.497-.566 1.214-.854 2.098-.867 1.454.023 2.446.796 2.78 2.272.075.358.124.744.124 1.185v7.212A2.292 2.292 0 0 0 12.987 18H15.6V8.506c0-2.287 1.12-3.461 2.944-3.461 1.825 0 2.849 1.174 2.849 3.46M48.412 17.931h4.086A2.51 2.51 0 0 0 54.96 15.5h.006v-1.68h-9.19l2.637 4.112zM42.34.12c-1.364.01-2.474 1.09-2.512 2.436v1.676h8.824l-5.302 5.803 2.425 3.782 8.753-9.58c.32-.347.493-.865.493-1.4V.12H42.339z"/></g></symbol><symbol viewBox="0 0 91 18" id="mazlo-logo-solid"><title>mazlo-logo-solid</title><g fill-rule="evenodd"><path d="M33.876.127c-.776.002-1.46.376-1.855.992L21.225 17.955h3.924a2.176 2.176 0 0 0 1.826-.992l6.88-10.723 6.881 10.723a2.161 2.161 0 0 0 1.8.991c.025.002 3.95.001 3.95.001L35.69 1.12a2.164 2.164 0 0 0-1.814-.992zM86.128 9.041v-.064c0-2.528-1.838-4.735-4.547-4.735-2.805 0-4.482 2.143-4.482 4.671v.064c0 2.528 1.838 4.735 4.546 4.735 2.806 0 4.483-2.143 4.483-4.67zm-13.867 0v-.064c0-4.927 4-8.926 9.384-8.926 5.354 0 9.32 3.935 9.32 8.862v.064c0 4.927-3.999 8.927-9.384 8.927-5.353 0-9.32-3.936-9.32-8.863zM62.848 13.875V2.59h-.005c0-1.347-1.08-2.437-2.426-2.483h-2.664V17.93h11.185a2.491 2.491 0 0 0 2.334-2.407h.005v-1.649h-8.429M21.394 8.506v6.3l4.819-7.536c-.09-3.96-3.358-7.156-7.37-7.156-2.19 0-4.29 1.071-5.642 2.58C12.045 1.138 9.536.136 7.467.136a7.518 7.518 0 0 0-3.27.751A2.482 2.482 0 0 0 2.471.126V.12H0v15.423c0 1.334 1.073 2.414 2.409 2.45V18h2.534V8.505c0-.28.018-.541.051-.787l.014-.077a4.34 4.34 0 0 1 .132-.61l.029-.083a3.301 3.301 0 0 1 .243-.568 2.671 2.671 0 0 1 .322-.464c.497-.566 1.214-.854 2.098-.867 1.454.023 2.446.796 2.78 2.272.075.358.124.744.124 1.185v7.212A2.292 2.292 0 0 0 12.987 18H15.6V8.506c0-2.287 1.12-3.461 2.944-3.461 1.825 0 2.849 1.174 2.849 3.46M48.412 17.931h4.086A2.51 2.51 0 0 0 54.96 15.5h.006v-1.68h-9.19l2.637 4.112zM42.34.12c-1.364.01-2.474 1.09-2.512 2.436v1.676h8.824l-5.302 5.803 2.425 3.782 8.753-9.58c.32-.347.493-.865.493-1.4V.12H42.339z"/></g></symbol><symbol viewBox="0 0 24 24" id="mazlo_profile"><g fill-rule="evenodd"><path fill="#2A2D31" d="M12 24c6.627 0 12-5.373 12-12S18.627 0 12 0 0 5.373 0 12s5.373 12 12 12z"/><path fill="#FFF" d="M8.419 17V9.877h.096l2.891 6.836h1.163l2.891-6.836h.096V17h1.422V7.136h-1.791l-3.145 7.492h-.116L8.788 7.136H6.997V17z"/></g></symbol><symbol viewBox="0 0 32 32" id="menu-close"><title>menu-close</title><path d="M16.068 14.871l-6.65-6.65a.758.758 0 0 0-1.066-.005.752.752 0 0 0 .006 1.066l6.65 6.65-6.786 6.785a.758.758 0 0 0-.006 1.066c.295.295.77.29 1.066-.005l6.786-6.786 6.775 6.776a.758.758 0 0 0 1.066.005.752.752 0 0 0-.005-1.066l-6.775-6.775 6.639-6.64a.758.758 0 0 0 .005-1.065.752.752 0 0 0-1.066.005l-6.64 6.64z" fill-rule="evenodd"/></symbol><symbol viewBox="0 0 28 28" id="menu-open"><title>menu-open</title><path d="M5 20v-2h18v2H5zm0-7h18v2H5v-2zm0-5h18v2H5V8z" fill-rule="evenodd"/></symbol><symbol viewBox="0 0 64 64" id="on-your-schedule"><title>on-your-schedule</title><g fill-rule="evenodd"><path d="M31 44H11V12h32v21h-2V14H13v28h18z"/><path d="M19 10h1v6h-1zM35 10h1v6h-1zM12 19h31v1H12zM53 43.5h2C55 50.404 49.404 56 42.5 56S30 50.404 30 43.5 35.596 31 42.5 31v2C36.701 33 32 37.701 32 43.5S36.701 54 42.5 54 53 49.299 53 43.5zM17 24h3v3h-3zM17 31h3v3h-3zM24 24h3v3h-3zM24 31h3v3h-3zM31 24h3v3h-3z"/><path d="M45.657 40l.707.707-4.829 4.829-.707-.707zM47.5 34l.866.5-1.5 2.598-.866-.5L47.5 34zm5.098 4l.5.866-2.598 1.5-.5-.866 2.598-1.5z"/></g></symbol><symbol viewBox="0 0 32 32" id="pause"><title>pause</title><g fill-rule="evenodd"><rect x="10" y="9" width="2" height="14" rx="1"/><rect x="20" y="9" width="2" height="14" rx="1"/></g></symbol><symbol viewBox="0 0 64 64" id="personal-coach"><title>personal-coach</title><g fill-rule="evenodd"><path d="M20 39a12.96 12.96 0 0 1-8.26-2.962c-.789.943-2.013 1.585-3.313 2.023C5.657 38.993 2 39 2 39c4.414-2.562 4.994-5.942 4.994-5.942L6.998 26c.002-7.18 5.82-13 13.01-13h8.984c6.151 0 11.305 4.266 12.66 10h-2.066c-1.307-4.617-5.554-8-10.594-8h-8.984C13.925 15 9 19.923 9 26v2l-.002-1.999-.004 7.058v.17l-.028.167c-.078.452-.28 1.112-.668 1.907-.14.288-.297.575-.47.86-.525.867 1.925-.867 2.379-1.409l1.273-1.522 1.532 1.262A10.958 10.958 0 0 0 20 37v2zm4 0h4.992C36.182 39 42 33.18 42 26h-2c0 6.077-4.925 11-11.008 11H24v2z"/><path d="M56.573 51.061C59.343 51.993 63 52 63 52c-4.414-2.562-4.994-5.942-4.994-5.942L58.002 39c-.002-7.18-5.82-13-13.01-13h-8.984C28.824 26 23 31.819 23 39c0 7.18 5.819 13 13.008 13h8.984a12.96 12.96 0 0 1 8.267-2.962c.79.943 2.014 1.585 3.314 2.023zm-1.78-3.307l-1.273-1.522-1.532 1.262A10.958 10.958 0 0 0 44.992 50h-8.984C29.925 50 25 45.077 25 39c0-6.076 4.928-11 11.008-11h8.984C51.075 28 56 32.923 56 39v2l.002-1.999.004 7.058v.17l.028.167c.078.452.28 1.112.668 1.907.14.288.297.575.47.86.525.867-1.925-.867-2.379-1.409z"/></g></symbol><symbol viewBox="0 0 32 32" id="pinterest"><title>pinterest</title><path d="M16 4C9.375 4 4 9.372 4 16c0 4.913 2.955 9.135 7.184 10.991-.034-.837-.005-1.844.208-2.756l1.544-6.538s-.383-.766-.383-1.9c0-1.778 1.032-3.106 2.315-3.106 1.09 0 1.618.82 1.618 1.803 0 1.096-.7 2.737-1.06 4.257-.3 1.274.638 2.312 1.894 2.312 2.274 0 3.805-2.92 3.805-6.38 0-2.63-1.771-4.598-4.993-4.598-3.64 0-5.907 2.714-5.907 5.745 0 1.047.307 1.784.79 2.354.223.264.253.368.172.67-.056.219-.189.752-.244.963-.08.303-.326.413-.6.3-1.678-.684-2.458-2.52-2.458-4.585 0-3.408 2.875-7.497 8.576-7.497 4.582 0 7.598 3.317 7.598 6.875 0 4.708-2.617 8.224-6.476 8.224-1.294 0-2.514-.7-2.931-1.494 0 0-.698 2.764-.844 3.298-.254.924-.752 1.85-1.208 2.57 1.08.318 2.22.492 3.4.492 6.628 0 12-5.372 12-12S22.628 4 16 4" fill-rule="evenodd"/></symbol><symbol viewBox="0 0 40 40" id="play"><title>Rectangle 21 + Path 9</title><g fill-rule="evenodd"><rect opacity=".95" width="40" height="40" rx="100"/><path d="M17.83 14.554c-.458-.306-.83-.098-.83.448v9.996c0 .553.375.752.83.449l7.334-4.887c.458-.305.455-.803 0-1.107l-7.334-4.899z" fill="#FFF"/></g></symbol><symbol viewBox="0 0 32 32" id="question"><title>question</title><g fill-rule="evenodd"><path d="M8 16.014C8 20.424 11.594 24 16.014 24A7.98 7.98 0 0 0 24 16.014C24 11.594 20.425 8 16.014 8 11.6 8 8 11.599 8 16.014zm1.067 0c0-3.826 3.121-6.947 6.947-6.947 3.82 0 6.92 3.115 6.92 6.947a6.913 6.913 0 0 1-6.92 6.92c-3.832 0-6.947-3.1-6.947-6.92z"/><path d="M16.016 12c-1.369 0-2.516 1.115-2.516 2.482 0 .283.232.515.513.515a.516.516 0 0 0 .513-.515c0-.832.657-1.489 1.49-1.489.834 0 1.49.657 1.49 1.49 0 .59-.337 1.082-.827 1.325-.59.264-.928.805-1.06 1.323-.133.52-.1 1.056-.1 1.525-.021.287.21.53.497.53a.497.497 0 0 0 .498-.53c0-.47-.023-.95.065-1.291.089-.344.231-.532.53-.663a2.49 2.49 0 0 0 1.391-2.22A2.487 2.487 0 0 0 16.016 12zm-.706 8.144c0 .409.329.736.738.736a.735.735 0 0 0 .738-.736c0-.41-.33-.738-.738-.738a.735.735 0 0 0-.738.738z" opacity=".8"/></g></symbol><symbol viewBox="0 0 32 32" id="replay"><title>replay</title><path d="M19.698 10.473l-.868.868c-.4.4-.262.739.289.776l3.816.254a.422.422 0 0 0 .457-.457l-.254-3.816c-.037-.545-.384-.68-.776-.288l-1.57 1.57A9 9 0 1 0 25 17h-1.501a7.5 7.5 0 1 1-3.802-6.527z" fill-rule="evenodd"/></symbol><symbol viewBox="0 0 32 32" id="right-arrow"><title>right-arrow</title><path d="M22.28 16.924l-4.914 4.914-.143.143a.75.75 0 1 0 1.06 1.061l.144-.143 5.721-5.721.143-.144a.76.76 0 0 0 .12-.156l.235-.235a.748.748 0 0 0 .001-1.06l-.179-.179-6.007-6.007-.179-.179a.752.752 0 0 0-1.06 0 .748.748 0 0 0 0 1.061l.178.179 4.966 4.966H8.75a.749.749 0 1 0 0 1.5h13.53z" fill-rule="evenodd"/></symbol><symbol viewBox="0 0 32 32" id="right-chevron"><title>right-chevron</title><path d="M21.41 16.413l.003.003-.707.707-5.995 5.994-.707.707-1.414-1.414.707-.707 5.29-5.29-5.288-5.294-.707-.707 1.415-1.414.707.708 5.992 5.997.707.707-.003.003z" fill-rule="evenodd"/></symbol><symbol viewBox="0 0 172 26" id="seattletimes"><title>seattletimes</title><g fill-rule="evenodd"><path d="M164.836 8.413c1.297-1.14 2.46-1.775 3.17-1.775 1.061 0 1.85.945 2.637.945.394 0 .69-.317.846-.628l.296.223a53.235 53.235 0 0 0-2.225 3.325c-.847-1.166-2.284-2.001-3.268-2.001-1.006 0-1.163.688-.769 1.26.746 1.006 2.537 2.058 3.879 3.129 1.121.88 1.79 1.72 1.79 2.964 0 1.588-1.888 3.236-3.248 5.476-1.339-.714-3.109-1.492-4.486-1.492-.964 0-1.537.459-1.755 1.063l-.157-.086c.432-2.225 1.22-4.081 2.775-4.081 1.224 0 2.619.911 4.156 2.09.233.183.412.125.53-.1.22-.503.138-1.46-.946-2.376-1.2-1.015-2.458-1.59-3.462-2.324-1.417-1.046-1.735-1.87-1.735-2.694.002-.817.554-1.677 1.972-2.918M128.02 6.532l2.03-3.719 1.807 1.376-3.227 2.85m2.778 9.12c0 1.83.433 2.474 1.259 2.474.453 0 .73-.238.73-.238l.158.417c-.924.645-2.54 1.93-3.249 2.59-1.97-1.757-2.403-2.408-2.403-5.257v-5.263c0-.912-.352-1.338-1.142-1.686v-.064c.79-.473 2.284-1.341 3.447-2.095.946 1.096 1.2 1.806 1.2 3.586m25.809 10.398c-.493.31-.905.31-1.417.046-2.088-1.071-2.834-2.724-2.834-5.487v-5.04c0-.31.077-.513.352-.659l5.318-2.906c.235-.12.355-.083.473.101l2.54 4.141c.137.235.12.387-.098.538-1.754 1.293-4.214 2.959-5.337 3.667l-.056-.754c.728-.436 1.926-1.23 2.577-1.773.197-.164.234-.324.08-.563l-1.97-3.085c-.217-.348-.571-.16-.571.184v5.283c0 2.234.827 3.7 2.42 3.7 1.556 0 2.637-1.339 3.109-2.251l.058.017v1.219c-1.339 1.26-3.173 2.728-4.648 3.62M52.995 6.803c-1.1-1.542-3.288-3.685-5.414-3.685-1.398 0-2.068.872-2.068 1.59 0 .969.808 1.622 2.915 2.976 4.174 2.685 7.422 4.54 7.422 8.106 0 3.72-3.995 5.05-5.16 7.84h-.077c-2.6-3.773-7.147-4.522-8.996-2.848l-.137-.1c.233-1.697 1.258-4.74 3.719-4.74 2.264 0 5.256 3.01 7.086 3.776.277.11.513.043.69-.172.236-.29.374-.745.374-1.467 0-5.016-10.395-6.447-10.395-10.463 0-.943.866-2.64 2.087-4.136C46.617 1.526 48.23.66 49.983.66c2.716 0 4.056 2.027 5.198 2.027.471 0 .787-.252 1.084-.653l.275.313c-1.263 1.316-2.818 3.42-3.545 4.457m-.335 11.344c0-4.46-10.514-5.853-10.514-10.534l-.118.018c-.748 5.246 9.587 6.593 10.514 10.545m36.302-3.166c0 2.238.453 3.174 1.52 3.174.547 0 .941-.353.941-.353l.16.408a96.969 96.969 0 0 0-3.092 3.159c-1.4-1.024-2.44-2.121-2.718-3.38l-.098-.304V7.272c0-1.38-.258-2.026-1.2-2.268v-.062a70.436 70.436 0 0 0 4.408-2.707l.08.046M82.74 14.99c0 2.455.531 3.249 1.595 3.249.985 0 1.556-1.006 1.556-1.006l.235.584c-.844.77-3.053 2.864-3.758 3.584-2.245-1.515-2.934-2.73-2.934-5.587v-8.54c0-1.38-.258-2.027-1.181-2.269v-.063a70.222 70.222 0 0 0 4.39-2.706l.098.046m7.835 6.738l.709-1.45H76.973l.552 1.45m23.9 12.047c-2.088-1.071-2.834-2.724-2.834-5.487v-5.04c0-.31.08-.513.353-.658l5.337-2.907c.215-.12.353-.082.473.102l2.537 4.14c.138.236.098.388-.097.54-1.752 1.292-4.214 2.958-5.355 3.666l-.04-.754c.73-.436 1.929-1.23 2.578-1.773.178-.164.236-.325.081-.564l-1.97-3.085c-.197-.303-.57-.16-.57.183v5.284c0 2.236.885 3.762 2.499 3.762 1.536 0 2.814-1.488 3.328-2.408l.057.017v1.218c-1.379 1.266-3.463 2.823-4.943 3.718-.491.311-.903.311-1.433.046m-5.908-5.808c0 2.236.57 2.933 1.691 2.933.572 0 .986-.362.986-.362l.158.41c-.867.8-2.54 2.428-3.208 3.162-2.345-1.694-2.974-2.565-2.974-5.587v-9.84c0-1.376-.258-2.03-1.18-2.262v-.068A70.313 70.313 0 0 0 95.42.947l.1.038M73.43 12.404c-1.673 1.195-4.726 2.875-6.123 3.71-.215.121-.275.291-.275.561 0 2.05.59 3.655 1.988 4.364.434.222.809.209 1.18-.09l3.328-2.697-.216-.682c-.295.52-.807.961-1.456.961-1.063 0-1.535-1.255-1.535-3.067 0-.186.018-.288.155-.39a29.423 29.423 0 0 1 3.012-1.876m2.933 2.396c0 1.333.08 1.862.413 2.4.217.37.55.566.886.566a.85.85 0 0 0 .61-.241l.178.413c-.77.588-2.383 1.974-3.132 2.67-1.337-1.223-2.047-2.02-2.242-3.414V11.71c0-.555-.12-.975-.534-1.305a13.87 13.87 0 0 0-2.008-1.316c-.333-.172-.57 0-.57.362v2.208c0 .5-.157.824-.513 1.009l-2.104 1.07c-.14.075-.238.013-.238-.145v-3.055c0-.227.058-.368.255-.489l4.825-3.115c.195-.12.273-.12.471 0 .946.594 2.54 1.746 3.466 2.475.175.134.235.318.235.516m-14.94 11.096c-.513.31-.924.31-1.436.046-2.088-1.071-2.836-2.724-2.836-5.487v-5.04c0-.31.078-.513.353-.659l5.336-2.906c.215-.12.353-.083.454.101l2.537 4.141c.158.235.118.387-.098.538a111.475 111.475 0 0 1-5.334 3.667l-.04-.754c.727-.436 1.929-1.23 2.56-1.773.197-.164.234-.324.08-.563l-1.97-3.085c-.215-.348-.571-.16-.571.184v5.283c0 2.234.846 3.7 2.442 3.7 1.535 0 2.615-1.339 3.09-2.251l.06.017v1.219c-1.339 1.26-3.17 2.728-4.627 3.62m-29.272.048c-2.07-1.071-2.817-2.724-2.817-5.487v-5.04c0-.31.06-.513.353-.658l5.317-2.907c.217-.12.353-.082.473.102l2.537 4.14c.14.236.12.388-.096.54-1.753 1.292-4.212 2.958-5.358 3.666l-.037-.754c.73-.436 1.93-1.23 2.578-1.773.198-.164.238-.325.08-.564l-1.97-3.085c-.195-.303-.57-.16-.57.183v5.284c0 2.236.907 3.762 2.5 3.762 1.557 0 2.836-1.488 3.327-2.408l.06.017v1.218c-1.379 1.266-3.466 2.823-4.94 3.718-.494.311-.908.311-1.437.046m-11.185-5.08c0 2.104.315 2.692 1.439 3.655l-2.598 2.291c-1.694-1.592-2.167-2.418-2.186-5.421V8.557c0-1.374-.178-2.053-1.124-2.223v-.062c1.4-.856 2.993-1.97 4.373-3.005l.096.045v5.752c0 .302.198.455.531.258a67.13 67.13 0 0 0 3.23-2.02c.12-.082.216-.101.354-.03 1.634.766 2.303 2.014 2.303 3.205v6.22c0 3.01-.49 4.013-5.552 8.928l-.628-.432c2.42-1.615 2.675-3.635 2.675-7.074V11.99c0-.735-.018-1.23-.176-1.679-.178-.486-.473-.834-.984-.834-.61 0-1.34.654-1.754 1.15M.727 6.544c-.04-.613.137-1.239.589-1.729.531-.564 1.3-.817 2.56-.817 2.322 0 6.457 1.755 10.06 1.755 3.149 0 5.295-3.065 6.103-4.692l-.336-.97-.059.006c-.198 1.35-1.356 3.014-3.937 3.014-2.44 0-7.263-1.875-9.783-1.875C2.3 1.235.53 3.895.215 6.075l.473.49"/><path d="M12.537 5.162h.769v15.723h-.769V5.162zm-5.63.153l.394.24c-1.674 1.23-2.993 3.565-2.993 6.46 0 4.82 2.795 8.816 7.324 8.816 2.598 0 4.232-1.337 5.038-2.647l.059.014.08 1.143c-1.262 1.148-3.996 3.157-7.401 3.157-5.317 0-8.526-3.642-8.526-8.431 0-4.469 3.111-7.244 6.025-8.751v-.001zm4.273-.184L9.19 6.233c-1.238.68-1.494 1.406-1.494 2.78 0 1.23.334 3.325.334 4.99 0 1.712-.356 2.248-1.815 2.866l.258.453c.946-.436 2.6-1.26 3.683-1.943.866-.558 1.023-.87 1.023-1.762V8.215c0-1.755.04-2.298.375-2.766l-.374-.318zm132.849 11.32c0 1.722.55 2.331 1.236 2.331.413 0 .693-.234.693-.234l.155.415c-.769.52-2.48 1.8-3.23 2.44-1.987-1.888-2.36-2.546-2.36-5.397v-4.013c0-.736-.042-1.23-.199-1.679-.158-.486-.453-.837-.965-.837-.61 0-1.319.615-1.733 1.118v5.857c0 1.722.57 2.332 1.26 2.332.412 0 .669-.236.669-.236l.158.417a57.297 57.297 0 0 0-3.23 2.44c-1.968-1.889-2.345-2.515-2.345-5.366v-5.153c0-.912-.372-1.338-1.16-1.686v-.067c.788-.473 2.303-1.341 3.444-2.096a5.899 5.899 0 0 1 1.046 2.2c.055.266.295.318.528.189 1.004-.565 2.403-1.482 3.366-2.122.12-.083.217-.102.355-.031 1.083.513 1.735 1.247 2.067 2.012.119.26.336.3.571.16a62.317 62.317 0 0 0 3.387-2.141c.136-.09.218-.102.353-.031 1.831.843 2.306 1.843 2.306 4.102v5.076c0 1.722.57 2.33 1.258 2.33.413 0 .671-.234.671-.234l.158.416a55.45 55.45 0 0 0-3.228 2.442c-1.97-1.89-2.344-2.548-2.344-5.397v-4.014c0-.737-.04-1.23-.197-1.68-.159-.485-.473-.836-.984-.836-.591 0-1.299.616-1.712 1.118l.006 5.854zm-33.314-9.908a2.29 2.29 0 0 1 .591-1.729c.532-.564 1.3-.817 2.56-.817 2.323 0 6.457 1.755 10.063 1.755 3.147 0 5.295-3.065 6.1-4.692l-.332-.97-.06.006c-.178 1.35-1.358 3.014-3.938 3.014-2.442 0-7.264-1.875-9.784-1.875-3.62 0-5.375 2.66-5.71 4.84l.473.49.037-.022z"/><path d="M122.53 5.162h.766v15.723h-.766V5.162zm-5.63.153l.393.24c-1.673 1.23-2.993 3.565-2.993 6.46 0 4.82 2.793 8.816 7.322 8.816 2.602 0 4.237-1.337 5.041-2.647l.06.014.076 1.143c-1.255 1.148-3.995 3.157-7.4 3.157-5.315 0-8.523-3.642-8.523-8.431-.001-4.469 3.11-7.244 6.025-8.751l-.001-.001zm4.29-.184l-2.01 1.102c-1.238.68-1.494 1.406-1.494 2.78 0 1.23.335 3.325.335 4.99 0 1.712-.355 2.248-1.812 2.866l.258.453c.963-.436 2.597-1.26 3.681-1.943.865-.558 1.023-.87 1.023-1.762V8.215c0-1.755.04-2.298.376-2.766l-.358-.318zM90.573 9.019l.71-1.448H76.976l.55 1.448z"/></g></symbol><symbol viewBox="0 0 32 32" id="shield"><path fill-rule="evenodd" d="M15.49 5l.49.315c2.898 1.854 5.229 3.278 8.38 3.764l.71.104v.722c0 5.43-.282 8.756-1.666 11.244-1.384 2.486-3.794 3.886-7.581 5.515l-.322.142-.323-.136c-3.906-1.578-6.305-3.207-7.63-5.763C6.223 18.347 6 15.08 6 10.22v-.783l.776-.053c2.795-.207 5.751-2.146 8.248-4.03L15.49 5zm.063 2.01c-1.49 1.113-3.183 2.173-4.998 2.923l10.997 10.995c.135-.192.267-.385.383-.592 1.062-1.912 1.395-4.914 1.428-9.836-2.929-.608-5.315-1.903-7.81-3.49zM8.81 10.563c-.363.097-.733.18-1.104.239.026 4.408.301 7.345 1.331 9.333 1.046 2.013 2.957 3.365 6.453 4.821 2.205-.967 3.786-1.809 4.922-2.79L8.81 10.563z"/></symbol><symbol viewBox="0 0 32 32" id="star-empty"><title>star-empty</title><path d="M28.079 14.387l-8.1-1.376-.529-.09-.249-.475-3.812-7.279.348-.664h.526l.348.664-3.812 7.279-.249.475-.53.09-8.099 1.376-.524-.537.162-.5.74-.126 5.744 5.875.375.383-.078.531-1.194 8.129-.672.333-.426-.31.11-.742 7.361-3.647.481-.238.48.238 7.363 3.647.109.743-.426.309-.672-.333-1.194-8.129-.078-.53.375-.384 5.744-5.875.74.125.162.501-.524.537zm-5.348 5.469l1.303 8.87L16 24.747l-8.034 3.98 1.303-8.87L3 13.444l8.84-1.501L16 4l4.16 7.943L29 13.444l-6.269 6.412z" fill-rule="evenodd"/></symbol><symbol viewBox="0 0 32 32" id="star-filled"><title>star-filled</title><path d="M28 13.718l-8.16-1.386L16 5l-3.84 7.332L4 13.718l5.786 5.918-1.202 8.189L16 24.15l7.416 3.674-1.202-8.189z" fill-rule="evenodd"/></symbol><symbol viewBox="0 0 32 32" id="star-half"><title>star-half</title><path d="M19.45 12.956L16 6.344v17.271l6.664 3.326-1.082-7.397 5.229-5.37-7.361-1.218zm3.281 6.963l1.303 8.906L16 24.829l-8.034 3.996 1.303-8.906L3 13.482l8.84-1.508L16 4l4.16 7.974L29 13.482l-6.269 6.437z" fill-rule="evenodd"/></symbol><symbol viewBox="0 0 13 13" id="star_with_circle"><g stroke="currentColor" fill-rule="evenodd"><ellipse opacity=".3" cx="6.5" cy="6.5" rx="6.5" ry="6.5"/><path d="M8.51 9.654a.141.141 0 0 0 .205-.149l-.384-2.238 1.626-1.585a.141.141 0 0 0-.078-.24l-2.247-.326-1.005-2.038a.142.142 0 0 0-.254 0L5.367 5.115l-2.246.326a.141.141 0 0 0-.078.241l1.626 1.585-.384 2.238a.141.141 0 0 0 .205.15L6.5 8.596l2.01 1.057z"/></g></symbol><symbol viewBox="0 0 32 32" id="stop"><title>stop</title><path d="M9.5 9.994v12.012c0 .272.222.494.494.494h12.012a.495.495 0 0 0 .494-.494V9.994a.495.495 0 0 0-.494-.494H9.994a.495.495 0 0 0-.494.494zm-1.5 0C8 8.893 8.895 8 9.994 8h12.012C23.107 8 24 8.895 24 9.994v12.012A1.995 1.995 0 0 1 22.006 24H9.994A1.995 1.995 0 0 1 8 22.006V9.994z" fill-rule="evenodd"/></symbol><symbol viewBox="0 0 32 32" id="twitter"><title>twitter</title><path d="M28 8.368a9.617 9.617 0 0 1-2.827.794 5.038 5.038 0 0 0 2.165-2.792 9.698 9.698 0 0 1-3.129 1.223A4.856 4.856 0 0 0 20.616 6c-2.718 0-4.922 2.26-4.922 5.049 0 .396.042.78.126 1.15-4.092-.211-7.72-2.22-10.15-5.277a5.14 5.14 0 0 0-.666 2.54c0 1.751.87 3.297 2.19 4.203a4.834 4.834 0 0 1-2.23-.63v.062c0 2.447 1.697 4.488 3.95 4.95a4.695 4.695 0 0 1-1.296.178c-.317 0-.627-.03-.927-.09.626 2.006 2.444 3.466 4.599 3.505A9.722 9.722 0 0 1 4 23.733 13.71 13.71 0 0 0 11.548 26c9.058 0 14.01-7.692 14.01-14.365 0-.22-.005-.439-.013-.654A10.1 10.1 0 0 0 28 8.368" fill-rule="evenodd"/></symbol><symbol viewBox="0 0 220 19" id="twsj"><title>twsj</title><path d="M6.084 17.292c0 .85.246 1.014.794 1.151l.85.192v.384H2.083v-.384l.712-.164c.548-.137.795-.412.795-1.178V.685h-.603C1.288.685.603 3.453.411 6.385H0V.137h9.674v6.248h-.412c-.191-2.932-.876-5.7-2.575-5.7h-.603v16.607zm4.193 1.343l.602-.165c.549-.137.795-.41.795-1.178V1.836c0-.767-.246-1.014-.795-1.151l-.602-.164V.137h5.343V.52l-.63.164c-.52.137-.822.356-.822 1.124v7.207h4.138V1.809c0-.768-.301-.987-.822-1.124l-.63-.164V.137h5.344V.52l-.603.164c-.548.137-.795.384-.795 1.151v15.429c0 .767.247 1.07.795 1.206l.603.164v.384h-5.345v-.384l.63-.136c.521-.137.823-.44.823-1.206V9.646h-4.138v7.646c0 .767.301 1.069.822 1.206l.63.137v.383h-5.343v-.383zm16.415-.164h1.89c2.467 0 2.933-2.796 3.262-5.7h.41v6.247H22.8v-.383l.603-.164c.548-.137.795-.412.795-1.179V1.863c0-.767-.247-1.04-.795-1.178L22.8.521V.137h9.18v6.248h-.41c-.302-2.932-.877-5.7-2.987-5.7h-1.891v8.249l.877-.028c1.178-.082 1.616-1.096 1.918-3.48h.41v7.618h-.41c-.247-2.987-.713-3.453-1.946-3.535l-.85-.028v8.99zM38.114 2.658c-.356-1.616-.575-1.863-1.096-2l-.52-.137V.137h5.124V.52l-.411.082c-.877.192-.795 1.068-.548 2.247l2.165 10.742 1.589-8.55-.575-2.932c-.22-1.042-.302-1.37-.85-1.508L42.636.52V.137h5.015V.52l-.603.11c-.904.164-.767 1.15-.548 2.22l2.083 10.743 2.055-10.168c.383-2.11.192-2.63-.63-2.795l-.576-.11V.138h3.755V.52l-.521.137c-.658.164-.822.685-1.206 2.52l-3.343 15.95h-.713l-2.576-12.44-2.33 12.441h-.904l-3.48-16.47zm26.801 15.813h1.097c2.329 0 3.014-2.769 3.288-5.7h.411v6.247H55.707v-.383l.576-.11c1.178-.219 1.178-.548.877-2.193l-.52-2.466h-3.372l-.356 1.864c-.411 2.11-.192 2.63.63 2.795l.576.11v.383h-3.81v-.383l.467-.137c.74-.22.931-.658 1.315-2.521L55.434.027h.822l3.507 16.47c.357 1.7.52 2.055 1.507 2.055.85 0 1.151-.439 1.151-1.26V1.836c0-.767-.246-1.014-.794-1.151L61.024.52V.137h5.426v.41l-.74.165c-.548.11-.795.357-.795 1.124V18.47zm-11.537-5.235h3.124l-1.59-7.782-1.534 7.782zm20.827 5.235h1.097c2.33 0 3.014-2.769 3.288-5.7h.411v6.247h-8.687v-.383l.603-.164c.548-.137.795-.412.795-1.179V1.836c0-.767-.247-1.014-.795-1.151l-.603-.164V.137h5.426v.41L75 .713c-.548.11-.795.357-.795 1.124V18.47zm13.732.657c-1.59 0-2.137-1.096-2.658-1.096-.301 0-.657.082-.931.987h-.33V12.77h.412c.329 3.535 1.645 5.754 3.48 5.754 1.234 0 2.083-1.123 2.083-3.151 0-4.275-6.11-6.111-6.11-10.852 0-2.549 1.315-4.495 3.644-4.495 1.507 0 1.836.987 2.466.987.356 0 .603-.274.74-.877h.329v6.248h-.411C90.32 3.233 89.473.63 87.499.63c-1.37 0-1.644 1.37-1.644 2.302 0 4.084 6.11 5.481 6.11 11.181 0 2.906-1.59 5.016-4.028 5.016zm10.085-1.836c0 .767.246 1.041.795 1.178l.712.165v.383h-5.508v-.383l.712-.165c.549-.137.795-.41.795-1.178V.685h-.603c-1.699 0-2.384 2.768-2.576 5.7h-.41V.137h9.673v6.248h-.41c-.193-2.932-.878-5.7-2.577-5.7h-.603v16.607zm4.193 1.343l.603-.165c.548-.137.794-.41.794-1.178V1.836c0-.767-.246-1.014-.794-1.151l-.603-.164V.137h5.234c2.33 0 4.494 1.48 4.494 4.576 0 2.385-1.123 4.056-3.398 4.66 2.494.465 2.494 1.644 2.74 4.795l.165 2.411c.082 1.343.137 1.645.52 1.645.412 0 .576-.931.576-1.836v-.466h.466v.63c0 1.507-.329 2.576-1.89 2.576-1.536 0-2.248-.877-2.358-4.028l-.137-3.508c-.054-1.671-.465-1.918-1.26-1.918h-1.288v7.618c0 .767.246 1.07.795 1.206l.603.137v.383h-5.262v-.383zm3.863-9.51h.905c1.535 0 2.302-.41 2.302-4.055 0-3.645-1.014-4.385-2.11-4.385h-1.096v8.44zm10.99 9.346h1.89c2.466 0 2.933-2.796 3.261-5.7h.411v6.247h-9.454v-.383l.603-.164c.548-.137.794-.412.794-1.179V1.863c0-.767-.246-1.04-.794-1.178l-.603-.164V.137h9.18v6.248h-.41c-.301-2.932-.877-5.7-2.988-5.7h-1.89v8.249l.876-.028c1.178-.082 1.617-1.096 1.919-3.48h.411v7.618h-.411c-.247-2.987-.713-3.453-1.947-3.535l-.848-.028v8.99zm10.167 0h1.89c2.466 0 2.933-2.796 3.261-5.7h.411v6.247h-9.454v-.383l.603-.164c.548-.137.795-.412.795-1.179V1.863c0-.767-.247-1.04-.795-1.178l-.603-.164V.137h9.18v6.248h-.41c-.302-2.932-.877-5.7-2.987-5.7h-1.891v8.249l.877-.028c1.178-.082 1.616-1.096 1.918-3.48h.411v7.618h-.411c-.247-2.987-.713-3.453-1.946-3.535l-.85-.028v8.99zm12.25-1.179c0 .85.247 1.014.794 1.151l.85.192v.384h-5.646v-.384l.713-.164c.547-.137.795-.412.795-1.178V.685h-.603c-1.7 0-2.384 2.768-2.576 5.7h-.411V.137h9.673v6.248h-.41c-.193-2.932-.878-5.7-2.577-5.7h-.603v16.607zm15.046-2.63c0 2.932-1.48 4.466-3.754 4.466-2.055 0-3.26-1.672-3.234-3.508.028-1.425 1.07-2.137 1.918-2.027.603.082 1.206.52 1.124 1.48-.082 1.37-1.563 1.315-1.617 2.164-.054.521.63 1.288 1.507 1.288 1.535 0 1.535-1.945 1.535-3.425V1.809c0-.768-.247-.987-.85-1.124l-.684-.164V.137h5.399V.52l-.603.164c-.548.137-.74.384-.74 1.151V14.66zm6.386 4.493c-3.207 0-4.769-4.33-4.769-9.591 0-5.234 1.507-9.564 4.769-9.564 3.233 0 4.795 4.33 4.795 9.564 0 5.262-1.48 9.591-4.795 9.591zm0-18.525c-1.37 0-2.055 1.096-2.055 8.825 0 7.974.63 9.098 2.055 9.098 1.424 0 2.082-1.124 2.082-9.154 0-7.672-.658-8.769-2.082-8.769zm15.647 18.005l.603-.165c.548-.137.795-.41.795-1.178V1.836c0-.904-.411-1.233-1.37-1.233-1.206 0-1.507.548-1.507 2.11v11.894c0 2.96-1.042 4.548-3.59 4.548-2.63 0-4.165-1.589-4.165-4.466V1.836c0-.767-.192-1.014-.74-1.151l-.603-.164V.137h5.453V.52l-.74.164c-.603.137-.849.356-.849 1.124V14.88c0 2.659.767 3.344 2.165 3.344 1.645 0 2.33-.932 2.33-3.618V3.7c0-2.302-.028-2.85-1.014-3.07l-.521-.11V.138h8.989c2.329 0 4.494 1.48 4.494 4.576 0 2.385-1.124 4.056-3.398 4.66 2.493.465 2.493 1.644 2.74 4.795l.165 2.411c.082 1.343.136 1.645.52 1.645.412 0 .576-.931.576-1.836v-.466h.466v.63c0 1.507-.329 2.576-1.89 2.576-1.536 0-2.248-.877-2.358-4.028l-.137-3.508c-.055-1.671-.466-1.918-1.26-1.918h-1.288v7.618c0 .767.246 1.07.794 1.206l.603.137v.383h-5.262v-.383zm3.864-9.51h.905c1.534 0 2.302-.41 2.302-4.055 0-3.645-1.014-4.385-2.11-4.385h-1.097v8.44zM187.855.63l-.383-.11V.138h3.59l4.905 12.441v-8.96c0-2.029.054-2.741-1.398-2.988l-.466-.11V.138h4.056V.52l-.383.11c-1.178.273-1.096 1.232-1.096 3.15v15.237h-.877L189.664 3.92v11.62c0 2.219 0 2.85 1.754 3.096v.383h-3.947v-.383l.494-.083c1.013-.192.987-1.178.987-3.178v-13.1c-.467-.958-.659-1.48-1.097-1.644zm24.116 17.84h1.096c2.329 0 3.014-2.768 3.288-5.7h.411v6.248H202.79v-.383l.576-.11c1.178-.219 1.206-.548.877-2.193l-.521-2.466h-3.37l-.358 1.864c-.41 2.11-.191 2.63.63 2.795l.576.11v.383h-3.81v-.383l.466-.137c.74-.22.932-.658 1.316-2.521l3.343-15.95h.823l3.507 16.47c.357 1.7.493 2.055 1.48 2.055.85 0 1.152-.439 1.152-1.26V1.836c0-.767-.247-1.014-.795-1.151l-.603-.165V.137h5.426v.41l-.74.165c-.548.11-.795.357-.795 1.124V18.47zm-11.51-5.234h3.124l-1.59-7.783-1.534 7.783zM220 17.812c0 .74-.548 1.289-1.206 1.289-.657 0-1.206-.549-1.206-1.289 0-.74.549-1.288 1.206-1.288.658 0 1.206.549 1.206 1.288z" fill-rule="evenodd"/></symbol><symbol viewBox="0 0 32 32" id="up-chevron"><title>up-chevron</title><path d="M16.002 11.002l.003-.003.707.707 5.995 5.995.707.707L22 19.822l-.708-.707-5.29-5.29-5.293 5.288-.708.707-1.413-1.415.707-.707 5.997-5.992.707-.707.003.003z" fill-rule="evenodd"/></symbol><symbol viewBox="0 0 32 32" id="video"><title>video</title><g transform="translate(5 5)" fill-rule="evenodd"><circle stroke="currentColor" stroke-width="1.5" cx="11" cy="11" r="11" fill="none"/><path d="M9.385 6.971c-.47-.288-.852-.083-.852.486v7.08c0 .556.379.776.852.486l5.72-3.5c.47-.287.472-.753 0-1.043l-5.72-3.509z"/></g></symbol></svg>